
<svg  
    xmlns="http://www.w3.org/2000/svg" 
    xmlns:xlink="http://www.w3.org/1999/xlink"
    x="0"
    y="0"
    width="800" 
    height="550" 
    viewBox="0 0 800 550"
    class="diagram layout"
>

<defs>
    
</defs>


    <style type="text/css" media="screen">  
    <![CDATA[  
    text {
    font-family: Verdana, Georgia, sans-serif;
    font-size: 14px;
    font-weight: normal;
}

.pinlabel__leader{
    stroke-width: 2;
    fill: none;
}

.pinlabel__text{
    dominant-baseline: central;
    fill: #fff;
    font-weight: bold;
    stroke-width: 0;
    text-anchor: middle;
}

.pwr .pinlabel__body{
    fill: #C1292E;
    stroke: rgb(0, 0, 0);
}
.pwr .pinlabel__leader{
    stroke: #C1292E;
}
.pwr .swatch__body {
    fill: #C1292E;
    stroke: rgb(0, 0, 0);
}
.swd .pinlabel__body{
    fill: #E89005;
    stroke: rgb(0, 0, 0);
}
.swd .pinlabel__leader{
    stroke: #E89005;
}
.swd .swatch__body {
    fill: #E89005;
    stroke: rgb(0, 0, 0);
}
.jtag .pinlabel__body{
    fill: #2B59C3;
    stroke: rgb(0, 0, 0);
}
.jtag .pinlabel__leader{
    stroke: #2B59C3;
}
.jtag .swatch__body {
    fill: #2B59C3;
    stroke: rgb(0, 0, 0);
}
.pin .pinlabel__body{
    fill: #95B2B0;
    stroke: rgb(0, 0, 0);
}
.pin .pinlabel__leader{
    stroke: #95B2B0;
}
.pin .swatch__body {
    fill: #95B2B0;
    stroke: rgb(0, 0, 0);
}
.gnd .pinlabel__body{
    fill: #210203;
    stroke: rgb(0, 0, 0);
}
.gnd .pinlabel__leader{
    stroke: #210203;
}
.gnd .swatch__body {
    fill: #210203;
}
.rst .pinlabel__body{
    fill: #E5F4E3;
    stroke: rgb(0, 0, 0);
}
.rst .pinlabel__text{
    fill: rgb(0, 0, 0);
}
.rst .pinlabel__leader{
    stroke: #E5F4E3;
}
.rst .swatch__body {
    fill: #E5F4E3;
    stroke: rgb(0, 0, 0);
}
.nc .pinlabel__body{
    fill: rgb(90, 90, 90);
    stroke: rgb(0, 0, 0);
}
.nc .pinlabel__leader{
    stroke: rgb(90, 90, 90);
}
.nc .swatch__body {
    fill: rgb(90, 90, 90);
    stroke: rgb(0, 0, 0);
}

.panel__inner {
    fill: #fff;
}
.panel__outer {
    fill: #333;
}

.legendentry text {
    dominant-baseline: central;
}

.h1 {
    font-size: 26px;
    font-weight: bold;
    font-style: italic;
}
.italic{
    font-style: italic;
}
.strong{
    font-weight: bold;
}

.panel--info .panel__inner{
    fill: #f4f4f4;
}
    ]]>  
</style>
<g 
        class="panel"
transform="
    translate(2 2) 
    scale(1 1)
    rotate(0)
"
id="f0e7899d-f7c8-4a8e-b3c1-f75999cf55ec_3"
clipPathUnits="userSpaceOnUse"
shape-rendering="geometricPrecision">
        <rect

        class="panel__outer"
transform="
    translate(-2 -2) 
    scale(1 1)
    rotate(0)
"
id="f0e7899d-f7c8-4a8e-b3c1-f75999cf55ec_177"
clipPathUnits="userSpaceOnUse"
shape-rendering="geometricPrecision"    
    width="800" 
    height="550" 
/><rect

        class="panel__inner"
transform="
    translate(0 0) 
    scale(1 1)
    rotate(0)
"
id="f0e7899d-f7c8-4a8e-b3c1-f75999cf55ec_176"
clipPathUnits="userSpaceOnUse"
shape-rendering="geometricPrecision"    
    width="796" 
    height="546" 
/><g 
        class="panel--main panel"
transform="
    translate(0.5 0.5) 
    scale(1 1)
    rotate(0)
"
id="f0e7899d-f7c8-4a8e-b3c1-f75999cf55ec_5"
clipPathUnits="userSpaceOnUse"
shape-rendering="geometricPrecision">
        <rect

        class="panel__outer"
transform="
    translate(-0.5 -0.5) 
    scale(1 1)
    rotate(0)
"
id="f0e7899d-f7c8-4a8e-b3c1-f75999cf55ec_179"
clipPathUnits="userSpaceOnUse"
shape-rendering="geometricPrecision"    
    width="796" 
    height="300" 
/><rect

        class="panel__inner"
transform="
    translate(0 0) 
    scale(1 1)
    rotate(0)
"
id="f0e7899d-f7c8-4a8e-b3c1-f75999cf55ec_178"
clipPathUnits="userSpaceOnUse"
shape-rendering="geometricPrecision"    
    width="795.0" 
    height="299.0" 
/><g 
transform="
    translate(320 50) 
    scale(1 1)
    rotate(0)
"
id="f0e7899d-f7c8-4a8e-b3c1-f75999cf55ec_9"
clipPathUnits="userSpaceOnUse"
shape-rendering="geometricPrecision">
        <g 
transform="
    translate(0 0) 
    scale(1 1)
    rotate(0)
"
id="f0e7899d-f7c8-4a8e-b3c1-f75999cf55ec_10"
clipPathUnits="userSpaceOnUse"
shape-rendering="geometricPrecision">
    b'<ns0:svg xmlns:ns0="http://www.w3.org/2000/svg" xmlns:ns1="http://www.inkscape.org/namespaces/inkscape" xmlns:ns2="http://sodipodi.sourceforge.net/DTD/sodipodi-0.dtd" width="180" height="210" viewBox="0 0 180 210" version="1.1" id="svg5" ns1:version="1.2.1 (9c6d41e410, 2022-07-14)" ns2:docname="10-pin-keyed.svg">\n  <ns2:namedview id="namedview7" pagecolor="#989898" bordercolor="#eeeeee" borderopacity="1" ns1:showpageshadow="false" ns1:pageopacity="0" ns1:pagecheckerboard="0" ns1:deskcolor="#989898" ns1:document-units="in" showgrid="true" ns1:zoom="4" ns1:cx="82.125" ns1:cy="84.5" ns1:window-width="1916" ns1:window-height="1039" ns1:window-x="0" ns1:window-y="39" ns1:window-maximized="1" ns1:current-layer="layer1">\n    <ns1:grid type="xygrid" id="grid111" units="px" spacingx="3" spacingy="3" empspacing="10" originx="0" originy="0" />\n  </ns2:namedview>\n  <ns0:defs id="defs2" />\n  <ns0:g ns1:label="Layer 1" ns1:groupmode="layer" id="layer1">\n    <ns0:rect style="fill:#ffff00;stroke:#d4aa00;stroke-width:0.6;stroke-linecap:round;stroke-linejoin:round;stroke-dasharray:none;paint-order:normal" id="rect12700" width="138.05522" height="9" x="20.996393" y="40.506012" />\n    <ns0:rect style="fill:#ffff00;stroke:#d4aa00;stroke-width:0.6;stroke-linecap:round;stroke-linejoin:round;stroke-dasharray:none" id="rect12700-3" width="138.05522" height="9" x="20.996393" y="70.518021" />\n    <ns0:rect style="fill:#ffff00;stroke:#d4aa00;stroke-width:0.6;stroke-linecap:round;stroke-linejoin:round;stroke-dasharray:none" id="rect12700-6" width="138.05522" height="9" x="20.996393" y="100.53002" />\n    <ns0:rect style="fill:#ffff00;stroke:#d4aa00;stroke-width:0.6;stroke-linecap:round;stroke-linejoin:round;stroke-dasharray:none" id="rect12700-6-7" width="138.05522" height="9" x="20.996393" y="130.54202" />\n    <ns0:rect style="fill:#ffff00;stroke:#d4aa00;stroke-width:0.6;stroke-linecap:round;stroke-linejoin:round;stroke-dasharray:none" id="rect12700-6-5" width="138.05522" height="9" x="20.996393" y="160.55403" />\n    <ns0:path style="fill:#1a1a1a;stroke:none;stroke-width:6.2525px;stroke-linecap:butt;stroke-linejoin:miter;stroke-opacity:1" d="m 54,30 v 150 h 72 V 30 Z" id="path6674" ns2:nodetypes="ccccc" />\n    <ns0:rect style="fill:#666666;stroke:none;stroke-width:2.36221;stroke-linecap:round;stroke-linejoin:round;stroke-dasharray:none" id="rect8128" width="18" height="18" x="66" y="36" />\n    <ns0:rect style="fill:#ffff00;stroke:#d4aa00;stroke-width:2.36315;stroke-linecap:round;stroke-linejoin:round;stroke-dasharray:none" id="rect930" width="9" height="9" x="70.5" y="40.5" />\n    <ns0:rect style="fill:#666666;stroke:none;stroke-width:2.36221;stroke-linecap:round;stroke-linejoin:round;stroke-dasharray:none" id="rect8128-3" width="18" height="18" x="96.030006" y="36.006012" />\n    <ns0:rect style="fill:#ffff00;stroke:#d4aa00;stroke-width:2.36315;stroke-linecap:round;stroke-linejoin:round;stroke-dasharray:none" id="rect930-5" width="9" height="9" x="100.53001" y="40.506012" />\n    <ns0:rect style="fill:#666666;stroke:none;stroke-width:2.36221;stroke-linecap:round;stroke-linejoin:round;stroke-dasharray:none" id="rect8128-6" width="18" height="18" x="66.017998" y="66.018021" />\n    <ns0:rect style="fill:#ffff00;stroke:#d4aa00;stroke-width:2.36315;stroke-linecap:round;stroke-linejoin:round;stroke-dasharray:none" id="rect930-2" width="9" height="9" x="70.517998" y="70.518021" />\n    <ns0:rect style="fill:#666666;stroke:none;stroke-width:2.36221;stroke-linecap:round;stroke-linejoin:round;stroke-dasharray:none" id="rect8128-3-9" width="18" height="18" x="96.030006" y="66.018021" />\n    <ns0:rect style="fill:#ffff00;stroke:#d4aa00;stroke-width:2.36315;stroke-linecap:round;stroke-linejoin:round;stroke-dasharray:none" id="rect930-5-1" width="9" height="9" x="100.53001" y="70.518021" />\n    <ns0:rect style="fill:#666666;stroke:none;stroke-width:2.36221;stroke-linecap:round;stroke-linejoin:round;stroke-dasharray:none" id="rect8128-2" width="18" height="18" x="66.017998" y="96.030022" />\n    <ns0:rect style="fill:#ffff00;stroke:#d4aa00;stroke-width:2.36315;stroke-linecap:round;stroke-linejoin:round;stroke-dasharray:none" id="rect930-7" width="9" height="9" x="70.517998" y="100.53002" />\n    <ns0:rect style="fill:#666666;stroke:none;stroke-width:2.36221;stroke-linecap:round;stroke-linejoin:round;stroke-dasharray:none" id="rect8128-3-0" width="18" height="18" x="96.030006" y="96.030022" />\n    <ns0:rect style="fill:#ffff00;stroke:#d4aa00;stroke-width:2.36315;stroke-linecap:round;stroke-linejoin:round;stroke-dasharray:none" id="rect930-5-9" width="9" height="9" x="100.53001" y="100.53002" />\n    <ns0:rect style="fill:#666666;stroke:none;stroke-width:2.36221;stroke-linecap:round;stroke-linejoin:round;stroke-dasharray:none" id="rect8128-36" width="18" height="18" x="66.017998" y="126.04203" />\n    <ns0:rect style="fill:#ffff00;stroke:#d4aa00;stroke-width:2.36315;stroke-linecap:round;stroke-linejoin:round;stroke-dasharray:none" id="rect930-0" width="9" height="9" x="70.517998" y="130.54202" />\n    <ns0:rect style="fill:#666666;stroke:none;stroke-width:2.36221;stroke-linecap:round;stroke-linejoin:round;stroke-dasharray:none" id="rect8128-3-6" width="18" height="18" x="96.030006" y="126.04203" />\n    <ns0:rect style="fill:#ffff00;stroke:#d4aa00;stroke-width:2.36315;stroke-linecap:round;stroke-linejoin:round;stroke-dasharray:none" id="rect930-5-2" width="9" height="9" x="100.53001" y="130.54202" />\n    <ns0:rect style="fill:#666666;stroke:none;stroke-width:2.36221;stroke-linecap:round;stroke-linejoin:round;stroke-dasharray:none" id="rect8128-61" width="18" height="18" x="66.017998" y="156.05403" />\n    <ns0:rect style="fill:#ffff00;stroke:#d4aa00;stroke-width:2.36315;stroke-linecap:round;stroke-linejoin:round;stroke-dasharray:none" id="rect930-8" width="9" height="9" x="70.517998" y="160.55403" />\n    <ns0:rect style="fill:#666666;stroke:none;stroke-width:2.36221;stroke-linecap:round;stroke-linejoin:round;stroke-dasharray:none" id="rect8128-3-7" width="18" height="18" x="96.030006" y="156.05403" />\n    <ns0:rect style="fill:#ffff00;stroke:#d4aa00;stroke-width:2.36315;stroke-linecap:round;stroke-linejoin:round;stroke-dasharray:none" id="rect930-5-92" width="9" height="9" x="100.53001" y="160.55403" />\n    <ns0:rect style="fill:#000000;stroke:#4d4d4d;stroke-width:2.4;stroke-linecap:round;stroke-linejoin:round;stroke-dasharray:none;paint-order:stroke fill markers" id="rect31925" width="27.010805" height="36.014408" x="126" y="44.992798" />\n    <ns0:rect style="fill:#000000;stroke:#4d4d4d;stroke-width:2.4;stroke-linecap:round;stroke-linejoin:round;stroke-dasharray:none;paint-order:stroke fill markers" id="rect31927" width="27.010805" height="36.014408" x="126" y="128.9928" />\n    <ns0:rect style="fill:#000000;stroke:#4d4d4d;stroke-width:2.4;stroke-linecap:round;stroke-linejoin:round;stroke-dasharray:none;paint-order:stroke fill markers" id="rect31981" width="27.010798" height="120.04802" x="26.989202" y="44.97599" />\n    <ns0:rect style="fill:#333333;stroke:none;stroke-width:0.6;stroke-linecap:round;stroke-linejoin:round;stroke-dasharray:none;paint-order:normal" id="rect32038" width="27.010805" height="6.0024014" x="126" y="75.004807" />\n    <ns0:rect style="fill:#333333;stroke:none;stroke-width:0.6;stroke-linecap:round;stroke-linejoin:round;stroke-dasharray:none;paint-order:normal" id="rect32040" width="27.010805" height="6.0024014" x="126" y="128.9928" />\n    <ns0:rect style="fill:#333333;stroke:none;stroke-width:0.6;stroke-linecap:round;stroke-linejoin:round;stroke-dasharray:none;paint-order:normal" id="rect32042" width="6.0024014" height="120.04802" x="47.948402" y="44.945969" />\n    <ns0:rect style="fill:#333333;stroke:none;stroke-width:0.6;stroke-linecap:round;stroke-linejoin:round;stroke-dasharray:none;paint-order:normal" id="rect32096" width="6.0024014" height="36.014408" x="126.0012" y="44.979584" />\n    <ns0:rect style="fill:#333333;stroke:none;stroke-width:0.6;stroke-linecap:round;stroke-linejoin:round;stroke-dasharray:none;paint-order:normal" id="rect32098" width="6.0024014" height="36.014408" x="126.00121" y="128.94597" />\n  </ns0:g>\n</ns0:svg>'
</g>
<g 
transform="
    translate(75.0 45.0) 
    scale(1 1)
    rotate(0)
"
id="f0e7899d-f7c8-4a8e-b3c1-f75999cf55ec_11"
clipPathUnits="userSpaceOnUse"
shape-rendering="geometricPrecision">
        <g 
transform="
    translate(0 0) 
    scale(1 1)
    rotate(0)
"
id="f0e7899d-f7c8-4a8e-b3c1-f75999cf55ec_12"
clipPathUnits="userSpaceOnUse"
shape-rendering="geometricPrecision">
        <g 
        class=" pinlabel pin"
transform="
    translate(0 0) 
    scale(-1 1)
    rotate(0)
"
id="f0e7899d-f7c8-4a8e-b3c1-f75999cf55ec_13"
clipPathUnits="userSpaceOnUse"
shape-rendering="geometricPrecision">
        <rect

        class=" pinlabel__body"
transform="
    translate(66 -13.0) 
    scale(1 1)
    rotate(0)
"
id="f0e7899d-f7c8-4a8e-b3c1-f75999cf55ec_182"
clipPathUnits="userSpaceOnUse"
shape-rendering="geometricPrecision"    
    width="80" 
    height="26" 
    rx="3" 
    ry="3" 
/><text

        class="pinlabel__text"
transform="
    translate(106.0 0) 
    scale(-1 1)
    rotate(0)
"
id="f0e7899d-f7c8-4a8e-b3c1-f75999cf55ec_180"
clipPathUnits="userSpaceOnUse"
shape-rendering="geometricPrecision">
    10
</text><path 

        class="pinlabel__leader"
transform="
    translate(0 0) 
    scale(1 1)
    rotate(0)
"
id="f0e7899d-f7c8-4a8e-b3c1-f75999cf55ec_15"
clipPathUnits="userSpaceOnUse"
shape-rendering="geometricPrecision"    
    d="M 0.0 0.0 L 8.25 0.0 C 33.0 0.0 33.0 0.0 57.75 0.0 L 66 0.0" 
/>
</g><g 
        class=" pinlabel rst"
transform="
    translate(-146.0 0) 
    scale(-1 1)
    rotate(0)
"
id="f0e7899d-f7c8-4a8e-b3c1-f75999cf55ec_17"
clipPathUnits="userSpaceOnUse"
shape-rendering="geometricPrecision">
        <rect

        class=" pinlabel__body"
transform="
    translate(6 -13.0) 
    scale(1 1)
    rotate(0)
"
id="f0e7899d-f7c8-4a8e-b3c1-f75999cf55ec_185"
clipPathUnits="userSpaceOnUse"
shape-rendering="geometricPrecision"    
    width="80" 
    height="26" 
    rx="3" 
    ry="3" 
/><text

        class="pinlabel__text"
transform="
    translate(46.0 0) 
    scale(-1 1)
    rotate(0)
"
id="f0e7899d-f7c8-4a8e-b3c1-f75999cf55ec_183"
clipPathUnits="userSpaceOnUse"
shape-rendering="geometricPrecision">
    nRst
</text><path 

        class=" pinlabel__leader"
transform="
    translate(0 0) 
    scale(1 1)
    rotate(0)
"
id="f0e7899d-f7c8-4a8e-b3c1-f75999cf55ec_21"
clipPathUnits="userSpaceOnUse"
shape-rendering="geometricPrecision"    
    d="M 0.0 0.0 L 6 0.0" 
/>
</g><g 
        class=" pinlabel rst"
transform="
    translate(-232.0 0) 
    scale(-1 1)
    rotate(0)
"
id="f0e7899d-f7c8-4a8e-b3c1-f75999cf55ec_22"
clipPathUnits="userSpaceOnUse"
shape-rendering="geometricPrecision">
        <rect

        class=" pinlabel__body"
transform="
    translate(6 -13.0) 
    scale(1 1)
    rotate(0)
"
id="f0e7899d-f7c8-4a8e-b3c1-f75999cf55ec_188"
clipPathUnits="userSpaceOnUse"
shape-rendering="geometricPrecision"    
    width="80" 
    height="26" 
    rx="3" 
    ry="3" 
/><text

        class="pinlabel__text"
transform="
    translate(46.0 0) 
    scale(-1 1)
    rotate(0)
"
id="f0e7899d-f7c8-4a8e-b3c1-f75999cf55ec_186"
clipPathUnits="userSpaceOnUse"
shape-rendering="geometricPrecision">
    nRst
</text><path 

        class=" pinlabel__leader"
transform="
    translate(0 0) 
    scale(1 1)
    rotate(0)
"
id="f0e7899d-f7c8-4a8e-b3c1-f75999cf55ec_26"
clipPathUnits="userSpaceOnUse"
shape-rendering="geometricPrecision"    
    d="M 0.0 0.0 L 6 0.0" 
/>
</g>
</g><g 
transform="
    translate(0 0) 
    scale(1 1)
    rotate(0)
"
id="f0e7899d-f7c8-4a8e-b3c1-f75999cf55ec_27"
clipPathUnits="userSpaceOnUse"
shape-rendering="geometricPrecision">
        <g 
        class=" pinlabel pin"
transform="
    translate(0.0 30.0) 
    scale(-1 1)
    rotate(0)
"
id="f0e7899d-f7c8-4a8e-b3c1-f75999cf55ec_28"
clipPathUnits="userSpaceOnUse"
shape-rendering="geometricPrecision">
        <rect

        class=" pinlabel__body"
transform="
    translate(66.0 -13.0) 
    scale(1 1)
    rotate(0)
"
id="f0e7899d-f7c8-4a8e-b3c1-f75999cf55ec_191"
clipPathUnits="userSpaceOnUse"
shape-rendering="geometricPrecision"    
    width="80" 
    height="26" 
    rx="3" 
    ry="3" 
/><text

        class="pinlabel__text"
transform="
    translate(106.0 0.0) 
    scale(-1 1)
    rotate(0)
"
id="f0e7899d-f7c8-4a8e-b3c1-f75999cf55ec_189"
clipPathUnits="userSpaceOnUse"
shape-rendering="geometricPrecision">
    8
</text><path 

        class="pinlabel__leader"
transform="
    translate(0 0) 
    scale(1 1)
    rotate(0)
"
id="f0e7899d-f7c8-4a8e-b3c1-f75999cf55ec_30"
clipPathUnits="userSpaceOnUse"
shape-rendering="geometricPrecision"    
    d="M 0.0 0.0 L 8.25 0.0 C 33.0 0.0 33.0 0.0 57.75 0.0 L 66.0 0.0" 
/>
</g><g 
        class=" pinlabel nc"
transform="
    translate(-146.0 30.0) 
    scale(-1 1)
    rotate(0)
"
id="f0e7899d-f7c8-4a8e-b3c1-f75999cf55ec_32"
clipPathUnits="userSpaceOnUse"
shape-rendering="geometricPrecision">
        <rect

        class=" pinlabel__body"
transform="
    translate(6 -13.0) 
    scale(1 1)
    rotate(0)
"
id="f0e7899d-f7c8-4a8e-b3c1-f75999cf55ec_194"
clipPathUnits="userSpaceOnUse"
shape-rendering="geometricPrecision"    
    width="80" 
    height="26" 
    rx="3" 
    ry="3" 
/><text

        class="pinlabel__text"
transform="
    translate(46.0 0) 
    scale(-1 1)
    rotate(0)
"
id="f0e7899d-f7c8-4a8e-b3c1-f75999cf55ec_192"
clipPathUnits="userSpaceOnUse"
shape-rendering="geometricPrecision">
    NC
</text><path 

        class=" pinlabel__leader"
transform="
    translate(0 0) 
    scale(1 1)
    rotate(0)
"
id="f0e7899d-f7c8-4a8e-b3c1-f75999cf55ec_36"
clipPathUnits="userSpaceOnUse"
shape-rendering="geometricPrecision"    
    d="M 0.0 0.0 L 6 0.0" 
/>
</g><g 
        class=" pinlabel jtag"
transform="
    translate(-232.0 30.0) 
    scale(-1 1)
    rotate(0)
"
id="f0e7899d-f7c8-4a8e-b3c1-f75999cf55ec_37"
clipPathUnits="userSpaceOnUse"
shape-rendering="geometricPrecision">
        <rect

        class=" pinlabel__body"
transform="
    translate(6 -13.0) 
    scale(1 1)
    rotate(0)
"
id="f0e7899d-f7c8-4a8e-b3c1-f75999cf55ec_197"
clipPathUnits="userSpaceOnUse"
shape-rendering="geometricPrecision"    
    width="80" 
    height="26" 
    rx="3" 
    ry="3" 
/><text

        class="pinlabel__text"
transform="
    translate(46.0 0) 
    scale(-1 1)
    rotate(0)
"
id="f0e7899d-f7c8-4a8e-b3c1-f75999cf55ec_195"
clipPathUnits="userSpaceOnUse"
shape-rendering="geometricPrecision">
    TDI
</text><path 

        class=" pinlabel__leader"
transform="
    translate(0 0) 
    scale(1 1)
    rotate(0)
"
id="f0e7899d-f7c8-4a8e-b3c1-f75999cf55ec_41"
clipPathUnits="userSpaceOnUse"
shape-rendering="geometricPrecision"    
    d="M 0.0 0.0 L 6 0.0" 
/>
</g>
</g><g 
transform="
    translate(0 0) 
    scale(1 1)
    rotate(0)
"
id="f0e7899d-f7c8-4a8e-b3c1-f75999cf55ec_42"
clipPathUnits="userSpaceOnUse"
shape-rendering="geometricPrecision">
        <g 
        class=" pinlabel pin"
transform="
    translate(0.0 60.0) 
    scale(-1 1)
    rotate(0)
"
id="f0e7899d-f7c8-4a8e-b3c1-f75999cf55ec_43"
clipPathUnits="userSpaceOnUse"
shape-rendering="geometricPrecision">
        <rect

        class=" pinlabel__body"
transform="
    translate(66.0 -13.0) 
    scale(1 1)
    rotate(0)
"
id="f0e7899d-f7c8-4a8e-b3c1-f75999cf55ec_200"
clipPathUnits="userSpaceOnUse"
shape-rendering="geometricPrecision"    
    width="80" 
    height="26" 
    rx="3" 
    ry="3" 
/><text

        class="pinlabel__text"
transform="
    translate(106.0 0.0) 
    scale(-1 1)
    rotate(0)
"
id="f0e7899d-f7c8-4a8e-b3c1-f75999cf55ec_198"
clipPathUnits="userSpaceOnUse"
shape-rendering="geometricPrecision">
    6
</text><path 

        class="pinlabel__leader"
transform="
    translate(0 0) 
    scale(1 1)
    rotate(0)
"
id="f0e7899d-f7c8-4a8e-b3c1-f75999cf55ec_45"
clipPathUnits="userSpaceOnUse"
shape-rendering="geometricPrecision"    
    d="M 0.0 0.0 L 8.25 0.0 C 33.0 0.0 33.0 0.0 57.75 0.0 L 66.0 0.0" 
/>
</g><g 
        class=" pinlabel swd"
transform="
    translate(-146.0 60.0) 
    scale(-1 1)
    rotate(0)
"
id="f0e7899d-f7c8-4a8e-b3c1-f75999cf55ec_47"
clipPathUnits="userSpaceOnUse"
shape-rendering="geometricPrecision">
        <rect

        class=" pinlabel__body"
transform="
    translate(6 -13.0) 
    scale(1 1)
    rotate(0)
"
id="f0e7899d-f7c8-4a8e-b3c1-f75999cf55ec_203"
clipPathUnits="userSpaceOnUse"
shape-rendering="geometricPrecision"    
    width="80" 
    height="26" 
    rx="3" 
    ry="3" 
/><text

        class="pinlabel__text"
transform="
    translate(46.0 0) 
    scale(-1 1)
    rotate(0)
"
id="f0e7899d-f7c8-4a8e-b3c1-f75999cf55ec_201"
clipPathUnits="userSpaceOnUse"
shape-rendering="geometricPrecision">
    TRACESWO
</text><path 

        class=" pinlabel__leader"
transform="
    translate(0 0) 
    scale(1 1)
    rotate(0)
"
id="f0e7899d-f7c8-4a8e-b3c1-f75999cf55ec_51"
clipPathUnits="userSpaceOnUse"
shape-rendering="geometricPrecision"    
    d="M 0.0 0.0 L 6 0.0" 
/>
</g><g 
        class=" pinlabel jtag"
transform="
    translate(-232.0 60.0) 
    scale(-1 1)
    rotate(0)
"
id="f0e7899d-f7c8-4a8e-b3c1-f75999cf55ec_52"
clipPathUnits="userSpaceOnUse"
shape-rendering="geometricPrecision">
        <rect

        class=" pinlabel__body"
transform="
    translate(6 -13.0) 
    scale(1 1)
    rotate(0)
"
id="f0e7899d-f7c8-4a8e-b3c1-f75999cf55ec_206"
clipPathUnits="userSpaceOnUse"
shape-rendering="geometricPrecision"    
    width="80" 
    height="26" 
    rx="3" 
    ry="3" 
/><text

        class="pinlabel__text"
transform="
    translate(46.0 0) 
    scale(-1 1)
    rotate(0)
"
id="f0e7899d-f7c8-4a8e-b3c1-f75999cf55ec_204"
clipPathUnits="userSpaceOnUse"
shape-rendering="geometricPrecision">
    TDO
</text><path 

        class=" pinlabel__leader"
transform="
    translate(0 0) 
    scale(1 1)
    rotate(0)
"
id="f0e7899d-f7c8-4a8e-b3c1-f75999cf55ec_56"
clipPathUnits="userSpaceOnUse"
shape-rendering="geometricPrecision"    
    d="M 0.0 0.0 L 6 0.0" 
/>
</g>
</g><g 
transform="
    translate(0 0) 
    scale(1 1)
    rotate(0)
"
id="f0e7899d-f7c8-4a8e-b3c1-f75999cf55ec_57"
clipPathUnits="userSpaceOnUse"
shape-rendering="geometricPrecision">
        <g 
        class=" pinlabel pin"
transform="
    translate(0.0 90.0) 
    scale(-1 1)
    rotate(0)
"
id="f0e7899d-f7c8-4a8e-b3c1-f75999cf55ec_58"
clipPathUnits="userSpaceOnUse"
shape-rendering="geometricPrecision">
        <rect

        class=" pinlabel__body"
transform="
    translate(66.0 -13.0) 
    scale(1 1)
    rotate(0)
"
id="f0e7899d-f7c8-4a8e-b3c1-f75999cf55ec_209"
clipPathUnits="userSpaceOnUse"
shape-rendering="geometricPrecision"    
    width="80" 
    height="26" 
    rx="3" 
    ry="3" 
/><text

        class="pinlabel__text"
transform="
    translate(106.0 0.0) 
    scale(-1 1)
    rotate(0)
"
id="f0e7899d-f7c8-4a8e-b3c1-f75999cf55ec_207"
clipPathUnits="userSpaceOnUse"
shape-rendering="geometricPrecision">
    4
</text><path 

        class="pinlabel__leader"
transform="
    translate(0 0) 
    scale(1 1)
    rotate(0)
"
id="f0e7899d-f7c8-4a8e-b3c1-f75999cf55ec_60"
clipPathUnits="userSpaceOnUse"
shape-rendering="geometricPrecision"    
    d="M 0.0 0.0 L 8.25 0.0 C 33.0 0.0 33.0 0.0 57.75 0.0 L 66.0 0.0" 
/>
</g><g 
        class=" pinlabel swd"
transform="
    translate(-146.0 90.0) 
    scale(-1 1)
    rotate(0)
"
id="f0e7899d-f7c8-4a8e-b3c1-f75999cf55ec_62"
clipPathUnits="userSpaceOnUse"
shape-rendering="geometricPrecision">
        <rect

        class=" pinlabel__body"
transform="
    translate(6 -13.0) 
    scale(1 1)
    rotate(0)
"
id="f0e7899d-f7c8-4a8e-b3c1-f75999cf55ec_212"
clipPathUnits="userSpaceOnUse"
shape-rendering="geometricPrecision"    
    width="80" 
    height="26" 
    rx="3" 
    ry="3" 
/><text

        class="pinlabel__text"
transform="
    translate(46.0 0) 
    scale(-1 1)
    rotate(0)
"
id="f0e7899d-f7c8-4a8e-b3c1-f75999cf55ec_210"
clipPathUnits="userSpaceOnUse"
shape-rendering="geometricPrecision">
    SWDCLK
</text><path 

        class=" pinlabel__leader"
transform="
    translate(0 0) 
    scale(1 1)
    rotate(0)
"
id="f0e7899d-f7c8-4a8e-b3c1-f75999cf55ec_66"
clipPathUnits="userSpaceOnUse"
shape-rendering="geometricPrecision"    
    d="M 0.0 0.0 L 6 0.0" 
/>
</g><g 
        class=" pinlabel jtag"
transform="
    translate(-232.0 90.0) 
    scale(-1 1)
    rotate(0)
"
id="f0e7899d-f7c8-4a8e-b3c1-f75999cf55ec_67"
clipPathUnits="userSpaceOnUse"
shape-rendering="geometricPrecision">
        <rect

        class=" pinlabel__body"
transform="
    translate(6 -13.0) 
    scale(1 1)
    rotate(0)
"
id="f0e7899d-f7c8-4a8e-b3c1-f75999cf55ec_215"
clipPathUnits="userSpaceOnUse"
shape-rendering="geometricPrecision"    
    width="80" 
    height="26" 
    rx="3" 
    ry="3" 
/><text

        class="pinlabel__text"
transform="
    translate(46.0 0) 
    scale(-1 1)
    rotate(0)
"
id="f0e7899d-f7c8-4a8e-b3c1-f75999cf55ec_213"
clipPathUnits="userSpaceOnUse"
shape-rendering="geometricPrecision">
    TCK
</text><path 

        class=" pinlabel__leader"
transform="
    translate(0 0) 
    scale(1 1)
    rotate(0)
"
id="f0e7899d-f7c8-4a8e-b3c1-f75999cf55ec_71"
clipPathUnits="userSpaceOnUse"
shape-rendering="geometricPrecision"    
    d="M 0.0 0.0 L 6 0.0" 
/>
</g>
</g><g 
transform="
    translate(0 0) 
    scale(1 1)
    rotate(0)
"
id="f0e7899d-f7c8-4a8e-b3c1-f75999cf55ec_72"
clipPathUnits="userSpaceOnUse"
shape-rendering="geometricPrecision">
        <g 
        class=" pinlabel pin"
transform="
    translate(0.0 120.0) 
    scale(-1 1)
    rotate(0)
"
id="f0e7899d-f7c8-4a8e-b3c1-f75999cf55ec_73"
clipPathUnits="userSpaceOnUse"
shape-rendering="geometricPrecision">
        <rect

        class=" pinlabel__body"
transform="
    translate(66.0 -13.0) 
    scale(1 1)
    rotate(0)
"
id="f0e7899d-f7c8-4a8e-b3c1-f75999cf55ec_218"
clipPathUnits="userSpaceOnUse"
shape-rendering="geometricPrecision"    
    width="80" 
    height="26" 
    rx="3" 
    ry="3" 
/><text

        class="pinlabel__text"
transform="
    translate(106.0 0.0) 
    scale(-1 1)
    rotate(0)
"
id="f0e7899d-f7c8-4a8e-b3c1-f75999cf55ec_216"
clipPathUnits="userSpaceOnUse"
shape-rendering="geometricPrecision">
    2
</text><path 

        class="pinlabel__leader"
transform="
    translate(0 0) 
    scale(1 1)
    rotate(0)
"
id="f0e7899d-f7c8-4a8e-b3c1-f75999cf55ec_75"
clipPathUnits="userSpaceOnUse"
shape-rendering="geometricPrecision"    
    d="M 0.0 0.0 L 8.25 0.0 C 33.0 0.0 33.0 0.0 57.75 0.0 L 66.0 0.0" 
/>
</g><g 
        class=" pinlabel swd"
transform="
    translate(-146.0 120.0) 
    scale(-1 1)
    rotate(0)
"
id="f0e7899d-f7c8-4a8e-b3c1-f75999cf55ec_77"
clipPathUnits="userSpaceOnUse"
shape-rendering="geometricPrecision">
        <rect

        class=" pinlabel__body"
transform="
    translate(6 -13.0) 
    scale(1 1)
    rotate(0)
"
id="f0e7899d-f7c8-4a8e-b3c1-f75999cf55ec_221"
clipPathUnits="userSpaceOnUse"
shape-rendering="geometricPrecision"    
    width="80" 
    height="26" 
    rx="3" 
    ry="3" 
/><text

        class="pinlabel__text"
transform="
    translate(46.0 0) 
    scale(-1 1)
    rotate(0)
"
id="f0e7899d-f7c8-4a8e-b3c1-f75999cf55ec_219"
clipPathUnits="userSpaceOnUse"
shape-rendering="geometricPrecision">
    SWDIO
</text><path 

        class=" pinlabel__leader"
transform="
    translate(0 0) 
    scale(1 1)
    rotate(0)
"
id="f0e7899d-f7c8-4a8e-b3c1-f75999cf55ec_81"
clipPathUnits="userSpaceOnUse"
shape-rendering="geometricPrecision"    
    d="M 0.0 0.0 L 6 0.0" 
/>
</g><g 
        class=" pinlabel jtag"
transform="
    translate(-232.0 120.0) 
    scale(-1 1)
    rotate(0)
"
id="f0e7899d-f7c8-4a8e-b3c1-f75999cf55ec_82"
clipPathUnits="userSpaceOnUse"
shape-rendering="geometricPrecision">
        <rect

        class=" pinlabel__body"
transform="
    translate(6 -13.0) 
    scale(1 1)
    rotate(0)
"
id="f0e7899d-f7c8-4a8e-b3c1-f75999cf55ec_224"
clipPathUnits="userSpaceOnUse"
shape-rendering="geometricPrecision"    
    width="80" 
    height="26" 
    rx="3" 
    ry="3" 
/><text

        class="pinlabel__text"
transform="
    translate(46.0 0) 
    scale(-1 1)
    rotate(0)
"
id="f0e7899d-f7c8-4a8e-b3c1-f75999cf55ec_222"
clipPathUnits="userSpaceOnUse"
shape-rendering="geometricPrecision">
    TMS
</text><path 

        class=" pinlabel__leader"
transform="
    translate(0 0) 
    scale(1 1)
    rotate(0)
"
id="f0e7899d-f7c8-4a8e-b3c1-f75999cf55ec_86"
clipPathUnits="userSpaceOnUse"
shape-rendering="geometricPrecision"    
    d="M 0.0 0.0 L 6 0.0" 
/>
</g>
</g>
</g><g 
transform="
    translate(105.0 45.0) 
    scale(1 1)
    rotate(0)
"
id="f0e7899d-f7c8-4a8e-b3c1-f75999cf55ec_87"
clipPathUnits="userSpaceOnUse"
shape-rendering="geometricPrecision">
        <g 
transform="
    translate(0 0) 
    scale(1 1)
    rotate(0)
"
id="f0e7899d-f7c8-4a8e-b3c1-f75999cf55ec_88"
clipPathUnits="userSpaceOnUse"
shape-rendering="geometricPrecision">
        <g 
        class=" pinlabel pin"
transform="
    translate(0 0) 
    scale(1 1)
    rotate(0)
"
id="f0e7899d-f7c8-4a8e-b3c1-f75999cf55ec_89"
clipPathUnits="userSpaceOnUse"
shape-rendering="geometricPrecision">
        <rect

        class=" pinlabel__body"
transform="
    translate(66 -13.0) 
    scale(1 1)
    rotate(0)
"
id="f0e7899d-f7c8-4a8e-b3c1-f75999cf55ec_227"
clipPathUnits="userSpaceOnUse"
shape-rendering="geometricPrecision"    
    width="80" 
    height="26" 
    rx="3" 
    ry="3" 
/><text

        class="pinlabel__text"
transform="
    translate(106.0 0) 
    scale(1 1)
    rotate(0)
"
id="f0e7899d-f7c8-4a8e-b3c1-f75999cf55ec_225"
clipPathUnits="userSpaceOnUse"
shape-rendering="geometricPrecision">
    9
</text><path 

        class="pinlabel__leader"
transform="
    translate(0 0) 
    scale(1 1)
    rotate(0)
"
id="f0e7899d-f7c8-4a8e-b3c1-f75999cf55ec_91"
clipPathUnits="userSpaceOnUse"
shape-rendering="geometricPrecision"    
    d="M 0.0 0.0 L 8.25 0.0 C 33.0 0.0 33.0 0.0 57.75 0.0 L 66 0.0" 
/>
</g><g 
        class=" pinlabel gnd"
transform="
    translate(146.0 0) 
    scale(1 1)
    rotate(0)
"
id="f0e7899d-f7c8-4a8e-b3c1-f75999cf55ec_93"
clipPathUnits="userSpaceOnUse"
shape-rendering="geometricPrecision">
        <rect

        class=" pinlabel__body"
transform="
    translate(6 -13.0) 
    scale(1 1)
    rotate(0)
"
id="f0e7899d-f7c8-4a8e-b3c1-f75999cf55ec_230"
clipPathUnits="userSpaceOnUse"
shape-rendering="geometricPrecision"    
    width="80" 
    height="26" 
    rx="3" 
    ry="3" 
/><text

        class="pinlabel__text"
transform="
    translate(46.0 0) 
    scale(1 1)
    rotate(0)
"
id="f0e7899d-f7c8-4a8e-b3c1-f75999cf55ec_228"
clipPathUnits="userSpaceOnUse"
shape-rendering="geometricPrecision">
    GND
</text><path 

        class=" pinlabel__leader"
transform="
    translate(0 0) 
    scale(1 1)
    rotate(0)
"
id="f0e7899d-f7c8-4a8e-b3c1-f75999cf55ec_97"
clipPathUnits="userSpaceOnUse"
shape-rendering="geometricPrecision"    
    d="M 0.0 0.0 L 6 0.0" 
/>
</g>
</g><g 
transform="
    translate(0 0) 
    scale(1 1)
    rotate(0)
"
id="f0e7899d-f7c8-4a8e-b3c1-f75999cf55ec_98"
clipPathUnits="userSpaceOnUse"
shape-rendering="geometricPrecision">
        <g 
        class=" pinlabel pin"
transform="
    translate(0.0 30.0) 
    scale(1 1)
    rotate(0)
"
id="f0e7899d-f7c8-4a8e-b3c1-f75999cf55ec_99"
clipPathUnits="userSpaceOnUse"
shape-rendering="geometricPrecision">
        <rect

        class=" pinlabel__body"
transform="
    translate(66.0 -13.0) 
    scale(1 1)
    rotate(0)
"
id="f0e7899d-f7c8-4a8e-b3c1-f75999cf55ec_233"
clipPathUnits="userSpaceOnUse"
shape-rendering="geometricPrecision"    
    width="80" 
    height="26" 
    rx="3" 
    ry="3" 
/><text

        class="pinlabel__text"
transform="
    translate(106.0 0.0) 
    scale(1 1)
    rotate(0)
"
id="f0e7899d-f7c8-4a8e-b3c1-f75999cf55ec_231"
clipPathUnits="userSpaceOnUse"
shape-rendering="geometricPrecision">
    7
</text><path 

        class="pinlabel__leader"
transform="
    translate(0 0) 
    scale(1 1)
    rotate(0)
"
id="f0e7899d-f7c8-4a8e-b3c1-f75999cf55ec_101"
clipPathUnits="userSpaceOnUse"
shape-rendering="geometricPrecision"    
    d="M 0.0 0.0 L 8.25 0.0 C 33.0 0.0 33.0 0.0 57.75 0.0 L 66.0 0.0" 
/>
</g><g 
        class=" pinlabel nc"
transform="
    translate(146.0 30.0) 
    scale(1 1)
    rotate(0)
"
id="f0e7899d-f7c8-4a8e-b3c1-f75999cf55ec_103"
clipPathUnits="userSpaceOnUse"
shape-rendering="geometricPrecision">
        <rect

        class=" pinlabel__body"
transform="
    translate(6 -13.0) 
    scale(1 1)
    rotate(0)
"
id="f0e7899d-f7c8-4a8e-b3c1-f75999cf55ec_236"
clipPathUnits="userSpaceOnUse"
shape-rendering="geometricPrecision"    
    width="80" 
    height="26" 
    rx="3" 
    ry="3" 
/><text

        class="pinlabel__text"
transform="
    translate(46.0 0) 
    scale(1 1)
    rotate(0)
"
id="f0e7899d-f7c8-4a8e-b3c1-f75999cf55ec_234"
clipPathUnits="userSpaceOnUse"
shape-rendering="geometricPrecision">
    Key
</text><path 

        class=" pinlabel__leader"
transform="
    translate(0 0) 
    scale(1 1)
    rotate(0)
"
id="f0e7899d-f7c8-4a8e-b3c1-f75999cf55ec_107"
clipPathUnits="userSpaceOnUse"
shape-rendering="geometricPrecision"    
    d="M 0.0 0.0 L 6 0.0" 
/>
</g>
</g><g 
transform="
    translate(0 0) 
    scale(1 1)
    rotate(0)
"
id="f0e7899d-f7c8-4a8e-b3c1-f75999cf55ec_108"
clipPathUnits="userSpaceOnUse"
shape-rendering="geometricPrecision">
        <g 
        class=" pinlabel pin"
transform="
    translate(0.0 60.0) 
    scale(1 1)
    rotate(0)
"
id="f0e7899d-f7c8-4a8e-b3c1-f75999cf55ec_109"
clipPathUnits="userSpaceOnUse"
shape-rendering="geometricPrecision">
        <rect

        class=" pinlabel__body"
transform="
    translate(66.0 -13.0) 
    scale(1 1)
    rotate(0)
"
id="f0e7899d-f7c8-4a8e-b3c1-f75999cf55ec_239"
clipPathUnits="userSpaceOnUse"
shape-rendering="geometricPrecision"    
    width="80" 
    height="26" 
    rx="3" 
    ry="3" 
/><text

        class="pinlabel__text"
transform="
    translate(106.0 0.0) 
    scale(1 1)
    rotate(0)
"
id="f0e7899d-f7c8-4a8e-b3c1-f75999cf55ec_237"
clipPathUnits="userSpaceOnUse"
shape-rendering="geometricPrecision">
    5
</text><path 

        class="pinlabel__leader"
transform="
    translate(0 0) 
    scale(1 1)
    rotate(0)
"
id="f0e7899d-f7c8-4a8e-b3c1-f75999cf55ec_111"
clipPathUnits="userSpaceOnUse"
shape-rendering="geometricPrecision"    
    d="M 0.0 0.0 L 8.25 0.0 C 33.0 0.0 33.0 0.0 57.75 0.0 L 66.0 0.0" 
/>
</g><g 
        class=" pinlabel gnd"
transform="
    translate(146.0 60.0) 
    scale(1 1)
    rotate(0)
"
id="f0e7899d-f7c8-4a8e-b3c1-f75999cf55ec_113"
clipPathUnits="userSpaceOnUse"
shape-rendering="geometricPrecision">
        <rect

        class=" pinlabel__body"
transform="
    translate(6 -13.0) 
    scale(1 1)
    rotate(0)
"
id="f0e7899d-f7c8-4a8e-b3c1-f75999cf55ec_242"
clipPathUnits="userSpaceOnUse"
shape-rendering="geometricPrecision"    
    width="80" 
    height="26" 
    rx="3" 
    ry="3" 
/><text

        class="pinlabel__text"
transform="
    translate(46.0 0) 
    scale(1 1)
    rotate(0)
"
id="f0e7899d-f7c8-4a8e-b3c1-f75999cf55ec_240"
clipPathUnits="userSpaceOnUse"
shape-rendering="geometricPrecision">
    GND
</text><path 

        class=" pinlabel__leader"
transform="
    translate(0 0) 
    scale(1 1)
    rotate(0)
"
id="f0e7899d-f7c8-4a8e-b3c1-f75999cf55ec_117"
clipPathUnits="userSpaceOnUse"
shape-rendering="geometricPrecision"    
    d="M 0.0 0.0 L 6 0.0" 
/>
</g>
</g><g 
transform="
    translate(0 0) 
    scale(1 1)
    rotate(0)
"
id="f0e7899d-f7c8-4a8e-b3c1-f75999cf55ec_118"
clipPathUnits="userSpaceOnUse"
shape-rendering="geometricPrecision">
        <g 
        class=" pinlabel pin"
transform="
    translate(0.0 90.0) 
    scale(1 1)
    rotate(0)
"
id="f0e7899d-f7c8-4a8e-b3c1-f75999cf55ec_119"
clipPathUnits="userSpaceOnUse"
shape-rendering="geometricPrecision">
        <rect

        class=" pinlabel__body"
transform="
    translate(66.0 -13.0) 
    scale(1 1)
    rotate(0)
"
id="f0e7899d-f7c8-4a8e-b3c1-f75999cf55ec_245"
clipPathUnits="userSpaceOnUse"
shape-rendering="geometricPrecision"    
    width="80" 
    height="26" 
    rx="3" 
    ry="3" 
/><text

        class="pinlabel__text"
transform="
    translate(106.0 0.0) 
    scale(1 1)
    rotate(0)
"
id="f0e7899d-f7c8-4a8e-b3c1-f75999cf55ec_243"
clipPathUnits="userSpaceOnUse"
shape-rendering="geometricPrecision">
    3
</text><path 

        class="pinlabel__leader"
transform="
    translate(0 0) 
    scale(1 1)
    rotate(0)
"
id="f0e7899d-f7c8-4a8e-b3c1-f75999cf55ec_121"
clipPathUnits="userSpaceOnUse"
shape-rendering="geometricPrecision"    
    d="M 0.0 0.0 L 8.25 0.0 C 33.0 0.0 33.0 0.0 57.75 0.0 L 66.0 0.0" 
/>
</g><g 
        class=" pinlabel gnd"
transform="
    translate(146.0 90.0) 
    scale(1 1)
    rotate(0)
"
id="f0e7899d-f7c8-4a8e-b3c1-f75999cf55ec_123"
clipPathUnits="userSpaceOnUse"
shape-rendering="geometricPrecision">
        <rect

        class=" pinlabel__body"
transform="
    translate(6 -13.0) 
    scale(1 1)
    rotate(0)
"
id="f0e7899d-f7c8-4a8e-b3c1-f75999cf55ec_248"
clipPathUnits="userSpaceOnUse"
shape-rendering="geometricPrecision"    
    width="80" 
    height="26" 
    rx="3" 
    ry="3" 
/><text

        class="pinlabel__text"
transform="
    translate(46.0 0) 
    scale(1 1)
    rotate(0)
"
id="f0e7899d-f7c8-4a8e-b3c1-f75999cf55ec_246"
clipPathUnits="userSpaceOnUse"
shape-rendering="geometricPrecision">
    GND
</text><path 

        class=" pinlabel__leader"
transform="
    translate(0 0) 
    scale(1 1)
    rotate(0)
"
id="f0e7899d-f7c8-4a8e-b3c1-f75999cf55ec_127"
clipPathUnits="userSpaceOnUse"
shape-rendering="geometricPrecision"    
    d="M 0.0 0.0 L 6 0.0" 
/>
</g>
</g><g 
transform="
    translate(0 0) 
    scale(1 1)
    rotate(0)
"
id="f0e7899d-f7c8-4a8e-b3c1-f75999cf55ec_128"
clipPathUnits="userSpaceOnUse"
shape-rendering="geometricPrecision">
        <g 
        class=" pinlabel pin"
transform="
    translate(0.0 120.0) 
    scale(1 1)
    rotate(0)
"
id="f0e7899d-f7c8-4a8e-b3c1-f75999cf55ec_129"
clipPathUnits="userSpaceOnUse"
shape-rendering="geometricPrecision">
        <rect

        class=" pinlabel__body"
transform="
    translate(66.0 -13.0) 
    scale(1 1)
    rotate(0)
"
id="f0e7899d-f7c8-4a8e-b3c1-f75999cf55ec_251"
clipPathUnits="userSpaceOnUse"
shape-rendering="geometricPrecision"    
    width="80" 
    height="26" 
    rx="3" 
    ry="3" 
/><text

        class="pinlabel__text"
transform="
    translate(106.0 0.0) 
    scale(1 1)
    rotate(0)
"
id="f0e7899d-f7c8-4a8e-b3c1-f75999cf55ec_249"
clipPathUnits="userSpaceOnUse"
shape-rendering="geometricPrecision">
    1
</text><path 

        class="pinlabel__leader"
transform="
    translate(0 0) 
    scale(1 1)
    rotate(0)
"
id="f0e7899d-f7c8-4a8e-b3c1-f75999cf55ec_131"
clipPathUnits="userSpaceOnUse"
shape-rendering="geometricPrecision"    
    d="M 0.0 0.0 L 8.25 0.0 C 33.0 0.0 33.0 0.0 57.75 0.0 L 66.0 0.0" 
/>
</g><g 
        class=" pinlabel pwr"
transform="
    translate(146.0 120.0) 
    scale(1 1)
    rotate(0)
"
id="f0e7899d-f7c8-4a8e-b3c1-f75999cf55ec_133"
clipPathUnits="userSpaceOnUse"
shape-rendering="geometricPrecision">
        <rect

        class=" pinlabel__body"
transform="
    translate(6 -13.0) 
    scale(1 1)
    rotate(0)
"
id="f0e7899d-f7c8-4a8e-b3c1-f75999cf55ec_254"
clipPathUnits="userSpaceOnUse"
shape-rendering="geometricPrecision"    
    width="80" 
    height="26" 
    rx="3" 
    ry="3" 
/><text

        class="pinlabel__text"
transform="
    translate(46.0 0) 
    scale(1 1)
    rotate(0)
"
id="f0e7899d-f7c8-4a8e-b3c1-f75999cf55ec_252"
clipPathUnits="userSpaceOnUse"
shape-rendering="geometricPrecision">
    vRef
</text><path 

        class=" pinlabel__leader"
transform="
    translate(0 0) 
    scale(1 1)
    rotate(0)
"
id="f0e7899d-f7c8-4a8e-b3c1-f75999cf55ec_137"
clipPathUnits="userSpaceOnUse"
shape-rendering="geometricPrecision"    
    d="M 0.0 0.0 L 6 0.0" 
/>
</g>
</g>
</g>
</g>
</g><g 
        class="panel--info panel"
transform="
    translate(0.5 300.5) 
    scale(1 1)
    rotate(0)
"
id="f0e7899d-f7c8-4a8e-b3c1-f75999cf55ec_7"
clipPathUnits="userSpaceOnUse"
shape-rendering="geometricPrecision">
        <rect

        class="panel__outer"
transform="
    translate(-0.5 -0.5) 
    scale(1 1)
    rotate(0)
"
id="f0e7899d-f7c8-4a8e-b3c1-f75999cf55ec_256"
clipPathUnits="userSpaceOnUse"
shape-rendering="geometricPrecision"    
    width="796" 
    height="246" 
/><rect

        class="panel__inner"
transform="
    translate(0 0) 
    scale(1 1)
    rotate(0)
"
id="f0e7899d-f7c8-4a8e-b3c1-f75999cf55ec_255"
clipPathUnits="userSpaceOnUse"
shape-rendering="geometricPrecision"    
    width="795.0" 
    height="245.0" 
/><g 
        class="panel title_block textblock"
transform="
    translate(20 30) 
    scale(1 1)
    rotate(0)
"
id="f0e7899d-f7c8-4a8e-b3c1-f75999cf55ec_138"
clipPathUnits="userSpaceOnUse"
shape-rendering="geometricPrecision">
        <text

        class="textblock"
transform="
    translate(0 0) 
    scale(1 1)
    rotate(0)
"
id="f0e7899d-f7c8-4a8e-b3c1-f75999cf55ec_257"
clipPathUnits="userSpaceOnUse"
shape-rendering="geometricPrecision">
    <tspan class='h1'>ARM Cortex JTAG/SWD Debug Connector Pinout</tspan>
</text>
</g><g 
        class="panel text_block textblock"
transform="
    translate(20 60) 
    scale(1 1)
    rotate(0)
"
id="f0e7899d-f7c8-4a8e-b3c1-f75999cf55ec_139"
clipPathUnits="userSpaceOnUse"
shape-rendering="geometricPrecision">
        <text

        class="textblock"
transform="
    translate(0 0) 
    scale(1 1)
    rotate(0)
"
id="f0e7899d-f7c8-4a8e-b3c1-f75999cf55ec_258"
clipPathUnits="userSpaceOnUse"
shape-rendering="geometricPrecision">
    This is the standard ARM Cortex JTAG/SWD Debug connector
</text><text

        class="textblock"
transform="
    translate(0 18) 
    scale(1 1)
    rotate(0)
"
id="f0e7899d-f7c8-4a8e-b3c1-f75999cf55ec_259"
clipPathUnits="userSpaceOnUse"
shape-rendering="geometricPrecision">
    used on Black Magic Probe as well as many targets.
</text><text

        class="textblock"
transform="
    translate(0 36) 
    scale(1 1)
    rotate(0)
"
id="f0e7899d-f7c8-4a8e-b3c1-f75999cf55ec_260"
clipPathUnits="userSpaceOnUse"
shape-rendering="geometricPrecision">
    
</text><text

        class="textblock"
transform="
    translate(0 54) 
    scale(1 1)
    rotate(0)
"
id="f0e7899d-f7c8-4a8e-b3c1-f75999cf55ec_261"
clipPathUnits="userSpaceOnUse"
shape-rendering="geometricPrecision">
    NOTE: The header is HALF PITCH! This means it is 0.05 inch (1.27 mm) pitch pin header.
</text><text

        class="textblock"
transform="
    translate(0 72) 
    scale(1 1)
    rotate(0)
"
id="f0e7899d-f7c8-4a8e-b3c1-f75999cf55ec_262"
clipPathUnits="userSpaceOnUse"
shape-rendering="geometricPrecision">
    
</text>
</g><g 
        class=" legend"
transform="
    translate(630 8) 
    scale(1 1)
    rotate(0)
"
id="f0e7899d-f7c8-4a8e-b3c1-f75999cf55ec_140"
clipPathUnits="userSpaceOnUse"
shape-rendering="geometricPrecision">
        <g 
        class="swd legendentry"
transform="
    translate(0 0) 
    scale(1 1)
    rotate(0)
"
id="f0e7899d-f7c8-4a8e-b3c1-f75999cf55ec_141"
clipPathUnits="userSpaceOnUse"
shape-rendering="geometricPrecision">
        <g 
        class=" swatch"
transform="
    translate(4.0 14.0) 
    scale(1 1)
    rotate(0)
"
id="f0e7899d-f7c8-4a8e-b3c1-f75999cf55ec_142"
clipPathUnits="userSpaceOnUse"
shape-rendering="geometricPrecision">
        <rect

        class=" swatch__body"
transform="
    translate(0 -10.0) 
    scale(1 1)
    rotate(0)
"
id="f0e7899d-f7c8-4a8e-b3c1-f75999cf55ec_143"
clipPathUnits="userSpaceOnUse"
shape-rendering="geometricPrecision"    
    width="20" 
    height="20" 
/>
</g><text

transform="
    translate(28.0 14.0) 
    scale(1 1)
    rotate(0)
"
id="f0e7899d-f7c8-4a8e-b3c1-f75999cf55ec_145"
clipPathUnits="userSpaceOnUse"
shape-rendering="geometricPrecision">
    SWD
</text>
</g><g 
        class="jtag legendentry"
transform="
    translate(0 28.0) 
    scale(1 1)
    rotate(0)
"
id="f0e7899d-f7c8-4a8e-b3c1-f75999cf55ec_146"
clipPathUnits="userSpaceOnUse"
shape-rendering="geometricPrecision">
        <g 
        class=" swatch"
transform="
    translate(4.0 14.0) 
    scale(1 1)
    rotate(0)
"
id="f0e7899d-f7c8-4a8e-b3c1-f75999cf55ec_147"
clipPathUnits="userSpaceOnUse"
shape-rendering="geometricPrecision">
        <rect

        class=" swatch__body"
transform="
    translate(0 -10.0) 
    scale(1 1)
    rotate(0)
"
id="f0e7899d-f7c8-4a8e-b3c1-f75999cf55ec_148"
clipPathUnits="userSpaceOnUse"
shape-rendering="geometricPrecision"    
    width="20" 
    height="20" 
/>
</g><text

transform="
    translate(28.0 14.0) 
    scale(1 1)
    rotate(0)
"
id="f0e7899d-f7c8-4a8e-b3c1-f75999cf55ec_150"
clipPathUnits="userSpaceOnUse"
shape-rendering="geometricPrecision">
    JTAG
</text>
</g><g 
        class="rst legendentry"
transform="
    translate(0 56.0) 
    scale(1 1)
    rotate(0)
"
id="f0e7899d-f7c8-4a8e-b3c1-f75999cf55ec_151"
clipPathUnits="userSpaceOnUse"
shape-rendering="geometricPrecision">
        <g 
        class=" swatch"
transform="
    translate(4.0 14.0) 
    scale(1 1)
    rotate(0)
"
id="f0e7899d-f7c8-4a8e-b3c1-f75999cf55ec_152"
clipPathUnits="userSpaceOnUse"
shape-rendering="geometricPrecision">
        <rect

        class=" swatch__body"
transform="
    translate(0 -10.0) 
    scale(1 1)
    rotate(0)
"
id="f0e7899d-f7c8-4a8e-b3c1-f75999cf55ec_153"
clipPathUnits="userSpaceOnUse"
shape-rendering="geometricPrecision"    
    width="20" 
    height="20" 
/>
</g><text

transform="
    translate(28.0 14.0) 
    scale(1 1)
    rotate(0)
"
id="f0e7899d-f7c8-4a8e-b3c1-f75999cf55ec_155"
clipPathUnits="userSpaceOnUse"
shape-rendering="geometricPrecision">
    Reset
</text>
</g><g 
        class="pin legendentry"
transform="
    translate(0 84.0) 
    scale(1 1)
    rotate(0)
"
id="f0e7899d-f7c8-4a8e-b3c1-f75999cf55ec_156"
clipPathUnits="userSpaceOnUse"
shape-rendering="geometricPrecision">
        <g 
        class=" swatch"
transform="
    translate(4.0 14.0) 
    scale(1 1)
    rotate(0)
"
id="f0e7899d-f7c8-4a8e-b3c1-f75999cf55ec_157"
clipPathUnits="userSpaceOnUse"
shape-rendering="geometricPrecision">
        <rect

        class=" swatch__body"
transform="
    translate(0 -10.0) 
    scale(1 1)
    rotate(0)
"
id="f0e7899d-f7c8-4a8e-b3c1-f75999cf55ec_158"
clipPathUnits="userSpaceOnUse"
shape-rendering="geometricPrecision"    
    width="20" 
    height="20" 
/>
</g><text

transform="
    translate(28.0 14.0) 
    scale(1 1)
    rotate(0)
"
id="f0e7899d-f7c8-4a8e-b3c1-f75999cf55ec_160"
clipPathUnits="userSpaceOnUse"
shape-rendering="geometricPrecision">
    Pin Number
</text>
</g><g 
        class="pwr legendentry"
transform="
    translate(0 112.0) 
    scale(1 1)
    rotate(0)
"
id="f0e7899d-f7c8-4a8e-b3c1-f75999cf55ec_161"
clipPathUnits="userSpaceOnUse"
shape-rendering="geometricPrecision">
        <g 
        class=" swatch"
transform="
    translate(4.0 14.0) 
    scale(1 1)
    rotate(0)
"
id="f0e7899d-f7c8-4a8e-b3c1-f75999cf55ec_162"
clipPathUnits="userSpaceOnUse"
shape-rendering="geometricPrecision">
        <rect

        class=" swatch__body"
transform="
    translate(0 -10.0) 
    scale(1 1)
    rotate(0)
"
id="f0e7899d-f7c8-4a8e-b3c1-f75999cf55ec_163"
clipPathUnits="userSpaceOnUse"
shape-rendering="geometricPrecision"    
    width="20" 
    height="20" 
/>
</g><text

transform="
    translate(28.0 14.0) 
    scale(1 1)
    rotate(0)
"
id="f0e7899d-f7c8-4a8e-b3c1-f75999cf55ec_165"
clipPathUnits="userSpaceOnUse"
shape-rendering="geometricPrecision">
    Power
</text>
</g><g 
        class="gnd legendentry"
transform="
    translate(0 140.0) 
    scale(1 1)
    rotate(0)
"
id="f0e7899d-f7c8-4a8e-b3c1-f75999cf55ec_166"
clipPathUnits="userSpaceOnUse"
shape-rendering="geometricPrecision">
        <g 
        class=" swatch"
transform="
    translate(4.0 14.0) 
    scale(1 1)
    rotate(0)
"
id="f0e7899d-f7c8-4a8e-b3c1-f75999cf55ec_167"
clipPathUnits="userSpaceOnUse"
shape-rendering="geometricPrecision">
        <rect

        class=" swatch__body"
transform="
    translate(0 -10.0) 
    scale(1 1)
    rotate(0)
"
id="f0e7899d-f7c8-4a8e-b3c1-f75999cf55ec_168"
clipPathUnits="userSpaceOnUse"
shape-rendering="geometricPrecision"    
    width="20" 
    height="20" 
/>
</g><text

transform="
    translate(28.0 14.0) 
    scale(1 1)
    rotate(0)
"
id="f0e7899d-f7c8-4a8e-b3c1-f75999cf55ec_170"
clipPathUnits="userSpaceOnUse"
shape-rendering="geometricPrecision">
    Ground
</text>
</g><g 
        class="nc legendentry"
transform="
    translate(0 168.0) 
    scale(1 1)
    rotate(0)
"
id="f0e7899d-f7c8-4a8e-b3c1-f75999cf55ec_171"
clipPathUnits="userSpaceOnUse"
shape-rendering="geometricPrecision">
        <g 
        class=" swatch"
transform="
    translate(4.0 14.0) 
    scale(1 1)
    rotate(0)
"
id="f0e7899d-f7c8-4a8e-b3c1-f75999cf55ec_172"
clipPathUnits="userSpaceOnUse"
shape-rendering="geometricPrecision">
        <rect

        class=" swatch__body"
transform="
    translate(0 -10.0) 
    scale(1 1)
    rotate(0)
"
id="f0e7899d-f7c8-4a8e-b3c1-f75999cf55ec_173"
clipPathUnits="userSpaceOnUse"
shape-rendering="geometricPrecision"    
    width="20" 
    height="20" 
/>
</g><text

transform="
    translate(28.0 14.0) 
    scale(1 1)
    rotate(0)
"
id="f0e7899d-f7c8-4a8e-b3c1-f75999cf55ec_175"
clipPathUnits="userSpaceOnUse"
shape-rendering="geometricPrecision">
    Not Connected
</text>
</g>
</g>
</g>
</g>
    
</svg>