
<svg  
    xmlns="http://www.w3.org/2000/svg" 
    xmlns:xlink="http://www.w3.org/1999/xlink"
    x="0"
    y="0"
    width="800" 
    height="550" 
    viewBox="0 0 800 550"
    class="diagram layout"
>

<defs>
    
</defs>


    <style type="text/css" media="screen">  
    <![CDATA[  
    text {
    font-family: Verdana, Georgia, sans-serif;
    font-size: 14px;
    font-weight: normal;
}

.pinlabel__leader{
    stroke-width: 2;
    fill: none;
}

.pinlabel__text{
    dominant-baseline: central;
    fill: #fff;
    font-weight: bold;
    stroke-width: 0;
    text-anchor: middle;
}

.pwr .pinlabel__body{
    fill: #C1292E;
    stroke: rgb(0, 0, 0);
}
.pwr .pinlabel__leader{
    stroke: #C1292E;
}
.pwr .swatch__body {
    fill: #C1292E;
    stroke: rgb(0, 0, 0);
}
.swd .pinlabel__body{
    fill: #E89005;
    stroke: rgb(0, 0, 0);
}
.swd .pinlabel__leader{
    stroke: #E89005;
}
.swd .swatch__body {
    fill: #E89005;
    stroke: rgb(0, 0, 0);
}
.jtag .pinlabel__body{
    fill: #2B59C3;
    stroke: rgb(0, 0, 0);
}
.jtag .pinlabel__leader{
    stroke: #2B59C3;
}
.jtag .swatch__body {
    fill: #2B59C3;
    stroke: rgb(0, 0, 0);
}
.pin .pinlabel__body{
    fill: #95B2B0;
    stroke: rgb(0, 0, 0);
}
.pin .pinlabel__leader{
    stroke: #95B2B0;
}
.pin .swatch__body {
    fill: #95B2B0;
    stroke: rgb(0, 0, 0);
}
.gnd .pinlabel__body{
    fill: #210203;
    stroke: rgb(0, 0, 0);
}
.gnd .pinlabel__leader{
    stroke: #210203;
}
.gnd .swatch__body {
    fill: #210203;
}
.rst .pinlabel__body{
    fill: #E5F4E3;
    stroke: rgb(0, 0, 0);
}
.rst .pinlabel__text{
    fill: rgb(0, 0, 0);
}
.rst .pinlabel__leader{
    stroke: #E5F4E3;
}
.rst .swatch__body {
    fill: #E5F4E3;
    stroke: rgb(0, 0, 0);
}
.nc .pinlabel__body{
    fill: rgb(90, 90, 90);
    stroke: rgb(0, 0, 0);
}
.nc .pinlabel__leader{
    stroke: rgb(90, 90, 90);
}
.nc .swatch__body {
    fill: rgb(90, 90, 90);
    stroke: rgb(0, 0, 0);
}

.panel__inner {
    fill: #fff;
}
.panel__outer {
    fill: #333;
}

.legendentry text {
    dominant-baseline: central;
}

.h1 {
    font-size: 26px;
    font-weight: bold;
    font-style: italic;
}
.italic{
    font-style: italic;
}
.strong{
    font-weight: bold;
}

.panel--info .panel__inner{
    fill: #f4f4f4;
}
    ]]>  
</style>
<g 
        class="panel"
transform="
    translate(2 2) 
    scale(1 1)
    rotate(0)
"
id="256aae51-ecaf-4c03-b1db-3354697df3bd_3"
clipPathUnits="userSpaceOnUse"
shape-rendering="geometricPrecision">
        <rect

        class="panel__outer"
transform="
    translate(-2 -2) 
    scale(1 1)
    rotate(0)
"
id="256aae51-ecaf-4c03-b1db-3354697df3bd_177"
clipPathUnits="userSpaceOnUse"
shape-rendering="geometricPrecision"    
    width="800" 
    height="550" 
/><rect

        class="panel__inner"
transform="
    translate(0 0) 
    scale(1 1)
    rotate(0)
"
id="256aae51-ecaf-4c03-b1db-3354697df3bd_176"
clipPathUnits="userSpaceOnUse"
shape-rendering="geometricPrecision"    
    width="796" 
    height="546" 
/><g 
        class="panel--main panel"
transform="
    translate(0.5 0.5) 
    scale(1 1)
    rotate(0)
"
id="256aae51-ecaf-4c03-b1db-3354697df3bd_5"
clipPathUnits="userSpaceOnUse"
shape-rendering="geometricPrecision">
        <rect

        class="panel__outer"
transform="
    translate(-0.5 -0.5) 
    scale(1 1)
    rotate(0)
"
id="256aae51-ecaf-4c03-b1db-3354697df3bd_179"
clipPathUnits="userSpaceOnUse"
shape-rendering="geometricPrecision"    
    width="796" 
    height="300" 
/><rect

        class="panel__inner"
transform="
    translate(0 0) 
    scale(1 1)
    rotate(0)
"
id="256aae51-ecaf-4c03-b1db-3354697df3bd_178"
clipPathUnits="userSpaceOnUse"
shape-rendering="geometricPrecision"    
    width="795.0" 
    height="299.0" 
/><g 
transform="
    translate(350 50) 
    scale(1 1)
    rotate(0)
"
id="256aae51-ecaf-4c03-b1db-3354697df3bd_9"
clipPathUnits="userSpaceOnUse"
shape-rendering="geometricPrecision">
        <g 
transform="
    translate(0 0) 
    scale(1 1)
    rotate(0)
"
id="256aae51-ecaf-4c03-b1db-3354697df3bd_10"
clipPathUnits="userSpaceOnUse"
shape-rendering="geometricPrecision">
    b'<ns0:svg xmlns:ns0="http://www.w3.org/2000/svg" xmlns:ns1="http://www.inkscape.org/namespaces/inkscape" xmlns:ns2="http://sodipodi.sourceforge.net/DTD/sodipodi-0.dtd" width="102" height="192" viewBox="0 0 340 640.00002" version="1.1" id="svg5" ns1:version="1.2.1 (9c6d41e410, 2022-07-14)" ns2:docname="10-pin-keyed.svg">\n  <ns2:namedview id="namedview7" pagecolor="#505050" bordercolor="#eeeeee" borderopacity="1" ns1:showpageshadow="0" ns1:pageopacity="0" ns1:pagecheckerboard="0" ns1:deskcolor="#505050" ns1:document-units="px" showgrid="true" ns1:zoom="2.8284271" ns1:cx="100.05561" ns1:cy="81.31728" ns1:window-width="1916" ns1:window-height="1039" ns1:window-x="0" ns1:window-y="39" ns1:window-maximized="1" ns1:current-layer="layer1">\n    <ns1:grid type="xygrid" id="grid111" units="px" spacingx="50.000001" spacingy="50" empspacing="50" originx="20" originy="20" />\n  </ns2:namedview>\n  <ns0:defs id="defs2" />\n  <ns0:g ns1:label="Layer 1" ns1:groupmode="layer" id="layer1">\n    <ns0:rect style="fill:#cccccc;stroke:none;stroke-width:10.7101;stroke-linecap:round;stroke-linejoin:round;stroke-opacity:1" id="rect115" width="300" height="600" x="20" y="20" ry="0" />\n    <ns0:path style="fill:none;stroke:#000000;stroke-width:28.5602;stroke-linecap:round;stroke-linejoin:miter;stroke-dasharray:none;stroke-opacity:1" d="M 320.00001,20 V 220" id="path4181" ns2:nodetypes="cc" />\n    <ns0:path style="fill:none;stroke:#000000;stroke-width:28.5602;stroke-linecap:round;stroke-linejoin:miter;stroke-dasharray:none;stroke-opacity:1" d="M 320.00001,420 V 620" id="path4183" ns2:nodetypes="cc" />\n    <ns0:path style="fill:none;stroke:#000000;stroke-width:28.5602;stroke-linecap:round;stroke-linejoin:miter;stroke-dasharray:none;stroke-opacity:1" d="M 20,20 V 620" id="path4185" ns2:nodetypes="cc" />\n    <ns0:circle style="fill:#808000;stroke:#ffff00;stroke-width:14.3007;stroke-linecap:round;stroke-linejoin:round;stroke-dasharray:none;stroke-opacity:1" id="path4528" cx="120" cy="120" r="40" />\n    <ns0:circle style="fill:#808000;stroke:#ffff00;stroke-width:14.2801;stroke-linecap:round;stroke-linejoin:round;stroke-dasharray:none;stroke-opacity:1" id="path4530" cx="220" cy="120" r="40" />\n    <ns0:circle style="fill:#808000;stroke:#ffff00;stroke-width:14.2801;stroke-linecap:round;stroke-linejoin:round;stroke-dasharray:none;stroke-opacity:1" id="path4532" cx="120" cy="220" r="40" />\n    <ns0:circle style="fill:#808000;stroke:#ffff00;stroke-width:14.2801;stroke-linecap:round;stroke-linejoin:round;stroke-dasharray:none;stroke-opacity:1" id="path4534" cx="220" cy="220" r="40" />\n    <ns0:circle style="fill:#808000;stroke:#ffff00;stroke-width:14.2801;stroke-linecap:round;stroke-linejoin:round;stroke-dasharray:none;stroke-opacity:1" id="path4538" cx="120" cy="320" r="40" />\n    <ns0:circle style="fill:#808000;stroke:#ffff00;stroke-width:14.2801;stroke-linecap:round;stroke-linejoin:round;stroke-dasharray:none;stroke-opacity:1" id="path4540" cx="220" cy="320" r="40" />\n    <ns0:circle style="fill:#808000;stroke:#ffff00;stroke-width:14.2801;stroke-linecap:round;stroke-linejoin:round;stroke-dasharray:none;stroke-opacity:1" id="path4542" cx="120" cy="420" r="40" />\n    <ns0:circle style="fill:#808000;stroke:#ffff00;stroke-width:14.2801;stroke-linecap:round;stroke-linejoin:round;stroke-dasharray:none;stroke-opacity:1" id="path4544" cx="220" cy="420" r="40" />\n    <ns0:circle style="fill:#808000;stroke:#ffff00;stroke-width:14.2801;stroke-linecap:round;stroke-linejoin:round;stroke-dasharray:none;stroke-opacity:1" id="path4546" cx="120" cy="520" r="40" />\n    <ns0:circle style="fill:#808000;stroke:#ffff00;stroke-width:14.2801;stroke-linecap:round;stroke-linejoin:round;stroke-dasharray:none;stroke-opacity:1" id="path4548" cx="220" cy="520" r="40" />\n  </ns0:g>\n</ns0:svg>'
</g>
<g 
transform="
    translate(36.0 36.0) 
    scale(1 1)
    rotate(0)
"
id="256aae51-ecaf-4c03-b1db-3354697df3bd_11"
clipPathUnits="userSpaceOnUse"
shape-rendering="geometricPrecision">
        <g 
transform="
    translate(0 0) 
    scale(1 1)
    rotate(0)
"
id="256aae51-ecaf-4c03-b1db-3354697df3bd_12"
clipPathUnits="userSpaceOnUse"
shape-rendering="geometricPrecision">
        <g 
        class=" pinlabel pin"
transform="
    translate(0 0) 
    scale(-1 1)
    rotate(0)
"
id="256aae51-ecaf-4c03-b1db-3354697df3bd_13"
clipPathUnits="userSpaceOnUse"
shape-rendering="geometricPrecision">
        <rect

        class=" pinlabel__body"
transform="
    translate(66 -13.0) 
    scale(1 1)
    rotate(0)
"
id="256aae51-ecaf-4c03-b1db-3354697df3bd_182"
clipPathUnits="userSpaceOnUse"
shape-rendering="geometricPrecision"    
    width="80" 
    height="26" 
    rx="3" 
    ry="3" 
/><text

        class="pinlabel__text"
transform="
    translate(106.0 0) 
    scale(-1 1)
    rotate(0)
"
id="256aae51-ecaf-4c03-b1db-3354697df3bd_180"
clipPathUnits="userSpaceOnUse"
shape-rendering="geometricPrecision">
    10
</text><path 

        class="pinlabel__leader"
transform="
    translate(0 0) 
    scale(1 1)
    rotate(0)
"
id="256aae51-ecaf-4c03-b1db-3354697df3bd_15"
clipPathUnits="userSpaceOnUse"
shape-rendering="geometricPrecision"    
    d="M 0.0 0.0 L 8.25 0.0 C 33.0 0.0 33.0 0.0 57.75 0.0 L 66 0.0" 
/>
</g><g 
        class=" pinlabel rst"
transform="
    translate(-146.0 0) 
    scale(-1 1)
    rotate(0)
"
id="256aae51-ecaf-4c03-b1db-3354697df3bd_17"
clipPathUnits="userSpaceOnUse"
shape-rendering="geometricPrecision">
        <rect

        class=" pinlabel__body"
transform="
    translate(6 -13.0) 
    scale(1 1)
    rotate(0)
"
id="256aae51-ecaf-4c03-b1db-3354697df3bd_185"
clipPathUnits="userSpaceOnUse"
shape-rendering="geometricPrecision"    
    width="80" 
    height="26" 
    rx="3" 
    ry="3" 
/><text

        class="pinlabel__text"
transform="
    translate(46.0 0) 
    scale(-1 1)
    rotate(0)
"
id="256aae51-ecaf-4c03-b1db-3354697df3bd_183"
clipPathUnits="userSpaceOnUse"
shape-rendering="geometricPrecision">
    nRst
</text><path 

        class=" pinlabel__leader"
transform="
    translate(0 0) 
    scale(1 1)
    rotate(0)
"
id="256aae51-ecaf-4c03-b1db-3354697df3bd_21"
clipPathUnits="userSpaceOnUse"
shape-rendering="geometricPrecision"    
    d="M 0.0 0.0 L 6 0.0" 
/>
</g><g 
        class=" pinlabel rst"
transform="
    translate(-232.0 0) 
    scale(-1 1)
    rotate(0)
"
id="256aae51-ecaf-4c03-b1db-3354697df3bd_22"
clipPathUnits="userSpaceOnUse"
shape-rendering="geometricPrecision">
        <rect

        class=" pinlabel__body"
transform="
    translate(6 -13.0) 
    scale(1 1)
    rotate(0)
"
id="256aae51-ecaf-4c03-b1db-3354697df3bd_188"
clipPathUnits="userSpaceOnUse"
shape-rendering="geometricPrecision"    
    width="80" 
    height="26" 
    rx="3" 
    ry="3" 
/><text

        class="pinlabel__text"
transform="
    translate(46.0 0) 
    scale(-1 1)
    rotate(0)
"
id="256aae51-ecaf-4c03-b1db-3354697df3bd_186"
clipPathUnits="userSpaceOnUse"
shape-rendering="geometricPrecision">
    nRst
</text><path 

        class=" pinlabel__leader"
transform="
    translate(0 0) 
    scale(1 1)
    rotate(0)
"
id="256aae51-ecaf-4c03-b1db-3354697df3bd_26"
clipPathUnits="userSpaceOnUse"
shape-rendering="geometricPrecision"    
    d="M 0.0 0.0 L 6 0.0" 
/>
</g>
</g><g 
transform="
    translate(0 0) 
    scale(1 1)
    rotate(0)
"
id="256aae51-ecaf-4c03-b1db-3354697df3bd_27"
clipPathUnits="userSpaceOnUse"
shape-rendering="geometricPrecision">
        <g 
        class=" pinlabel pin"
transform="
    translate(0.0 30.0) 
    scale(-1 1)
    rotate(0)
"
id="256aae51-ecaf-4c03-b1db-3354697df3bd_28"
clipPathUnits="userSpaceOnUse"
shape-rendering="geometricPrecision">
        <rect

        class=" pinlabel__body"
transform="
    translate(66.0 -13.0) 
    scale(1 1)
    rotate(0)
"
id="256aae51-ecaf-4c03-b1db-3354697df3bd_191"
clipPathUnits="userSpaceOnUse"
shape-rendering="geometricPrecision"    
    width="80" 
    height="26" 
    rx="3" 
    ry="3" 
/><text

        class="pinlabel__text"
transform="
    translate(106.0 0.0) 
    scale(-1 1)
    rotate(0)
"
id="256aae51-ecaf-4c03-b1db-3354697df3bd_189"
clipPathUnits="userSpaceOnUse"
shape-rendering="geometricPrecision">
    8
</text><path 

        class="pinlabel__leader"
transform="
    translate(0 0) 
    scale(1 1)
    rotate(0)
"
id="256aae51-ecaf-4c03-b1db-3354697df3bd_30"
clipPathUnits="userSpaceOnUse"
shape-rendering="geometricPrecision"    
    d="M 0.0 0.0 L 8.25 0.0 C 33.0 0.0 33.0 0.0 57.75 0.0 L 66.0 0.0" 
/>
</g><g 
        class=" pinlabel nc"
transform="
    translate(-146.0 30.0) 
    scale(-1 1)
    rotate(0)
"
id="256aae51-ecaf-4c03-b1db-3354697df3bd_32"
clipPathUnits="userSpaceOnUse"
shape-rendering="geometricPrecision">
        <rect

        class=" pinlabel__body"
transform="
    translate(6 -13.0) 
    scale(1 1)
    rotate(0)
"
id="256aae51-ecaf-4c03-b1db-3354697df3bd_194"
clipPathUnits="userSpaceOnUse"
shape-rendering="geometricPrecision"    
    width="80" 
    height="26" 
    rx="3" 
    ry="3" 
/><text

        class="pinlabel__text"
transform="
    translate(46.0 0) 
    scale(-1 1)
    rotate(0)
"
id="256aae51-ecaf-4c03-b1db-3354697df3bd_192"
clipPathUnits="userSpaceOnUse"
shape-rendering="geometricPrecision">
    NC
</text><path 

        class=" pinlabel__leader"
transform="
    translate(0 0) 
    scale(1 1)
    rotate(0)
"
id="256aae51-ecaf-4c03-b1db-3354697df3bd_36"
clipPathUnits="userSpaceOnUse"
shape-rendering="geometricPrecision"    
    d="M 0.0 0.0 L 6 0.0" 
/>
</g><g 
        class=" pinlabel jtag"
transform="
    translate(-232.0 30.0) 
    scale(-1 1)
    rotate(0)
"
id="256aae51-ecaf-4c03-b1db-3354697df3bd_37"
clipPathUnits="userSpaceOnUse"
shape-rendering="geometricPrecision">
        <rect

        class=" pinlabel__body"
transform="
    translate(6 -13.0) 
    scale(1 1)
    rotate(0)
"
id="256aae51-ecaf-4c03-b1db-3354697df3bd_197"
clipPathUnits="userSpaceOnUse"
shape-rendering="geometricPrecision"    
    width="80" 
    height="26" 
    rx="3" 
    ry="3" 
/><text

        class="pinlabel__text"
transform="
    translate(46.0 0) 
    scale(-1 1)
    rotate(0)
"
id="256aae51-ecaf-4c03-b1db-3354697df3bd_195"
clipPathUnits="userSpaceOnUse"
shape-rendering="geometricPrecision">
    TDI
</text><path 

        class=" pinlabel__leader"
transform="
    translate(0 0) 
    scale(1 1)
    rotate(0)
"
id="256aae51-ecaf-4c03-b1db-3354697df3bd_41"
clipPathUnits="userSpaceOnUse"
shape-rendering="geometricPrecision"    
    d="M 0.0 0.0 L 6 0.0" 
/>
</g>
</g><g 
transform="
    translate(0 0) 
    scale(1 1)
    rotate(0)
"
id="256aae51-ecaf-4c03-b1db-3354697df3bd_42"
clipPathUnits="userSpaceOnUse"
shape-rendering="geometricPrecision">
        <g 
        class=" pinlabel pin"
transform="
    translate(0.0 60.0) 
    scale(-1 1)
    rotate(0)
"
id="256aae51-ecaf-4c03-b1db-3354697df3bd_43"
clipPathUnits="userSpaceOnUse"
shape-rendering="geometricPrecision">
        <rect

        class=" pinlabel__body"
transform="
    translate(66.0 -13.0) 
    scale(1 1)
    rotate(0)
"
id="256aae51-ecaf-4c03-b1db-3354697df3bd_200"
clipPathUnits="userSpaceOnUse"
shape-rendering="geometricPrecision"    
    width="80" 
    height="26" 
    rx="3" 
    ry="3" 
/><text

        class="pinlabel__text"
transform="
    translate(106.0 0.0) 
    scale(-1 1)
    rotate(0)
"
id="256aae51-ecaf-4c03-b1db-3354697df3bd_198"
clipPathUnits="userSpaceOnUse"
shape-rendering="geometricPrecision">
    6
</text><path 

        class="pinlabel__leader"
transform="
    translate(0 0) 
    scale(1 1)
    rotate(0)
"
id="256aae51-ecaf-4c03-b1db-3354697df3bd_45"
clipPathUnits="userSpaceOnUse"
shape-rendering="geometricPrecision"    
    d="M 0.0 0.0 L 8.25 0.0 C 33.0 0.0 33.0 0.0 57.75 0.0 L 66.0 0.0" 
/>
</g><g 
        class=" pinlabel swd"
transform="
    translate(-146.0 60.0) 
    scale(-1 1)
    rotate(0)
"
id="256aae51-ecaf-4c03-b1db-3354697df3bd_47"
clipPathUnits="userSpaceOnUse"
shape-rendering="geometricPrecision">
        <rect

        class=" pinlabel__body"
transform="
    translate(6 -13.0) 
    scale(1 1)
    rotate(0)
"
id="256aae51-ecaf-4c03-b1db-3354697df3bd_203"
clipPathUnits="userSpaceOnUse"
shape-rendering="geometricPrecision"    
    width="80" 
    height="26" 
    rx="3" 
    ry="3" 
/><text

        class="pinlabel__text"
transform="
    translate(46.0 0) 
    scale(-1 1)
    rotate(0)
"
id="256aae51-ecaf-4c03-b1db-3354697df3bd_201"
clipPathUnits="userSpaceOnUse"
shape-rendering="geometricPrecision">
    TRACESWO
</text><path 

        class=" pinlabel__leader"
transform="
    translate(0 0) 
    scale(1 1)
    rotate(0)
"
id="256aae51-ecaf-4c03-b1db-3354697df3bd_51"
clipPathUnits="userSpaceOnUse"
shape-rendering="geometricPrecision"    
    d="M 0.0 0.0 L 6 0.0" 
/>
</g><g 
        class=" pinlabel jtag"
transform="
    translate(-232.0 60.0) 
    scale(-1 1)
    rotate(0)
"
id="256aae51-ecaf-4c03-b1db-3354697df3bd_52"
clipPathUnits="userSpaceOnUse"
shape-rendering="geometricPrecision">
        <rect

        class=" pinlabel__body"
transform="
    translate(6 -13.0) 
    scale(1 1)
    rotate(0)
"
id="256aae51-ecaf-4c03-b1db-3354697df3bd_206"
clipPathUnits="userSpaceOnUse"
shape-rendering="geometricPrecision"    
    width="80" 
    height="26" 
    rx="3" 
    ry="3" 
/><text

        class="pinlabel__text"
transform="
    translate(46.0 0) 
    scale(-1 1)
    rotate(0)
"
id="256aae51-ecaf-4c03-b1db-3354697df3bd_204"
clipPathUnits="userSpaceOnUse"
shape-rendering="geometricPrecision">
    TDO
</text><path 

        class=" pinlabel__leader"
transform="
    translate(0 0) 
    scale(1 1)
    rotate(0)
"
id="256aae51-ecaf-4c03-b1db-3354697df3bd_56"
clipPathUnits="userSpaceOnUse"
shape-rendering="geometricPrecision"    
    d="M 0.0 0.0 L 6 0.0" 
/>
</g>
</g><g 
transform="
    translate(0 0) 
    scale(1 1)
    rotate(0)
"
id="256aae51-ecaf-4c03-b1db-3354697df3bd_57"
clipPathUnits="userSpaceOnUse"
shape-rendering="geometricPrecision">
        <g 
        class=" pinlabel pin"
transform="
    translate(0.0 90.0) 
    scale(-1 1)
    rotate(0)
"
id="256aae51-ecaf-4c03-b1db-3354697df3bd_58"
clipPathUnits="userSpaceOnUse"
shape-rendering="geometricPrecision">
        <rect

        class=" pinlabel__body"
transform="
    translate(66.0 -13.0) 
    scale(1 1)
    rotate(0)
"
id="256aae51-ecaf-4c03-b1db-3354697df3bd_209"
clipPathUnits="userSpaceOnUse"
shape-rendering="geometricPrecision"    
    width="80" 
    height="26" 
    rx="3" 
    ry="3" 
/><text

        class="pinlabel__text"
transform="
    translate(106.0 0.0) 
    scale(-1 1)
    rotate(0)
"
id="256aae51-ecaf-4c03-b1db-3354697df3bd_207"
clipPathUnits="userSpaceOnUse"
shape-rendering="geometricPrecision">
    4
</text><path 

        class="pinlabel__leader"
transform="
    translate(0 0) 
    scale(1 1)
    rotate(0)
"
id="256aae51-ecaf-4c03-b1db-3354697df3bd_60"
clipPathUnits="userSpaceOnUse"
shape-rendering="geometricPrecision"    
    d="M 0.0 0.0 L 8.25 0.0 C 33.0 0.0 33.0 0.0 57.75 0.0 L 66.0 0.0" 
/>
</g><g 
        class=" pinlabel swd"
transform="
    translate(-146.0 90.0) 
    scale(-1 1)
    rotate(0)
"
id="256aae51-ecaf-4c03-b1db-3354697df3bd_62"
clipPathUnits="userSpaceOnUse"
shape-rendering="geometricPrecision">
        <rect

        class=" pinlabel__body"
transform="
    translate(6 -13.0) 
    scale(1 1)
    rotate(0)
"
id="256aae51-ecaf-4c03-b1db-3354697df3bd_212"
clipPathUnits="userSpaceOnUse"
shape-rendering="geometricPrecision"    
    width="80" 
    height="26" 
    rx="3" 
    ry="3" 
/><text

        class="pinlabel__text"
transform="
    translate(46.0 0) 
    scale(-1 1)
    rotate(0)
"
id="256aae51-ecaf-4c03-b1db-3354697df3bd_210"
clipPathUnits="userSpaceOnUse"
shape-rendering="geometricPrecision">
    SWDCLK
</text><path 

        class=" pinlabel__leader"
transform="
    translate(0 0) 
    scale(1 1)
    rotate(0)
"
id="256aae51-ecaf-4c03-b1db-3354697df3bd_66"
clipPathUnits="userSpaceOnUse"
shape-rendering="geometricPrecision"    
    d="M 0.0 0.0 L 6 0.0" 
/>
</g><g 
        class=" pinlabel jtag"
transform="
    translate(-232.0 90.0) 
    scale(-1 1)
    rotate(0)
"
id="256aae51-ecaf-4c03-b1db-3354697df3bd_67"
clipPathUnits="userSpaceOnUse"
shape-rendering="geometricPrecision">
        <rect

        class=" pinlabel__body"
transform="
    translate(6 -13.0) 
    scale(1 1)
    rotate(0)
"
id="256aae51-ecaf-4c03-b1db-3354697df3bd_215"
clipPathUnits="userSpaceOnUse"
shape-rendering="geometricPrecision"    
    width="80" 
    height="26" 
    rx="3" 
    ry="3" 
/><text

        class="pinlabel__text"
transform="
    translate(46.0 0) 
    scale(-1 1)
    rotate(0)
"
id="256aae51-ecaf-4c03-b1db-3354697df3bd_213"
clipPathUnits="userSpaceOnUse"
shape-rendering="geometricPrecision">
    TCK
</text><path 

        class=" pinlabel__leader"
transform="
    translate(0 0) 
    scale(1 1)
    rotate(0)
"
id="256aae51-ecaf-4c03-b1db-3354697df3bd_71"
clipPathUnits="userSpaceOnUse"
shape-rendering="geometricPrecision"    
    d="M 0.0 0.0 L 6 0.0" 
/>
</g>
</g><g 
transform="
    translate(0 0) 
    scale(1 1)
    rotate(0)
"
id="256aae51-ecaf-4c03-b1db-3354697df3bd_72"
clipPathUnits="userSpaceOnUse"
shape-rendering="geometricPrecision">
        <g 
        class=" pinlabel pin"
transform="
    translate(0.0 120.0) 
    scale(-1 1)
    rotate(0)
"
id="256aae51-ecaf-4c03-b1db-3354697df3bd_73"
clipPathUnits="userSpaceOnUse"
shape-rendering="geometricPrecision">
        <rect

        class=" pinlabel__body"
transform="
    translate(66.0 -13.0) 
    scale(1 1)
    rotate(0)
"
id="256aae51-ecaf-4c03-b1db-3354697df3bd_218"
clipPathUnits="userSpaceOnUse"
shape-rendering="geometricPrecision"    
    width="80" 
    height="26" 
    rx="3" 
    ry="3" 
/><text

        class="pinlabel__text"
transform="
    translate(106.0 0.0) 
    scale(-1 1)
    rotate(0)
"
id="256aae51-ecaf-4c03-b1db-3354697df3bd_216"
clipPathUnits="userSpaceOnUse"
shape-rendering="geometricPrecision">
    2
</text><path 

        class="pinlabel__leader"
transform="
    translate(0 0) 
    scale(1 1)
    rotate(0)
"
id="256aae51-ecaf-4c03-b1db-3354697df3bd_75"
clipPathUnits="userSpaceOnUse"
shape-rendering="geometricPrecision"    
    d="M 0.0 0.0 L 8.25 0.0 C 33.0 0.0 33.0 0.0 57.75 0.0 L 66.0 0.0" 
/>
</g><g 
        class=" pinlabel swd"
transform="
    translate(-146.0 120.0) 
    scale(-1 1)
    rotate(0)
"
id="256aae51-ecaf-4c03-b1db-3354697df3bd_77"
clipPathUnits="userSpaceOnUse"
shape-rendering="geometricPrecision">
        <rect

        class=" pinlabel__body"
transform="
    translate(6 -13.0) 
    scale(1 1)
    rotate(0)
"
id="256aae51-ecaf-4c03-b1db-3354697df3bd_221"
clipPathUnits="userSpaceOnUse"
shape-rendering="geometricPrecision"    
    width="80" 
    height="26" 
    rx="3" 
    ry="3" 
/><text

        class="pinlabel__text"
transform="
    translate(46.0 0) 
    scale(-1 1)
    rotate(0)
"
id="256aae51-ecaf-4c03-b1db-3354697df3bd_219"
clipPathUnits="userSpaceOnUse"
shape-rendering="geometricPrecision">
    SWDIO
</text><path 

        class=" pinlabel__leader"
transform="
    translate(0 0) 
    scale(1 1)
    rotate(0)
"
id="256aae51-ecaf-4c03-b1db-3354697df3bd_81"
clipPathUnits="userSpaceOnUse"
shape-rendering="geometricPrecision"    
    d="M 0.0 0.0 L 6 0.0" 
/>
</g><g 
        class=" pinlabel jtag"
transform="
    translate(-232.0 120.0) 
    scale(-1 1)
    rotate(0)
"
id="256aae51-ecaf-4c03-b1db-3354697df3bd_82"
clipPathUnits="userSpaceOnUse"
shape-rendering="geometricPrecision">
        <rect

        class=" pinlabel__body"
transform="
    translate(6 -13.0) 
    scale(1 1)
    rotate(0)
"
id="256aae51-ecaf-4c03-b1db-3354697df3bd_224"
clipPathUnits="userSpaceOnUse"
shape-rendering="geometricPrecision"    
    width="80" 
    height="26" 
    rx="3" 
    ry="3" 
/><text

        class="pinlabel__text"
transform="
    translate(46.0 0) 
    scale(-1 1)
    rotate(0)
"
id="256aae51-ecaf-4c03-b1db-3354697df3bd_222"
clipPathUnits="userSpaceOnUse"
shape-rendering="geometricPrecision">
    TMS
</text><path 

        class=" pinlabel__leader"
transform="
    translate(0 0) 
    scale(1 1)
    rotate(0)
"
id="256aae51-ecaf-4c03-b1db-3354697df3bd_86"
clipPathUnits="userSpaceOnUse"
shape-rendering="geometricPrecision"    
    d="M 0.0 0.0 L 6 0.0" 
/>
</g>
</g>
</g><g 
transform="
    translate(66.0 36.0) 
    scale(1 1)
    rotate(0)
"
id="256aae51-ecaf-4c03-b1db-3354697df3bd_87"
clipPathUnits="userSpaceOnUse"
shape-rendering="geometricPrecision">
        <g 
transform="
    translate(0 0) 
    scale(1 1)
    rotate(0)
"
id="256aae51-ecaf-4c03-b1db-3354697df3bd_88"
clipPathUnits="userSpaceOnUse"
shape-rendering="geometricPrecision">
        <g 
        class=" pinlabel pin"
transform="
    translate(0 0) 
    scale(1 1)
    rotate(0)
"
id="256aae51-ecaf-4c03-b1db-3354697df3bd_89"
clipPathUnits="userSpaceOnUse"
shape-rendering="geometricPrecision">
        <rect

        class=" pinlabel__body"
transform="
    translate(66 -13.0) 
    scale(1 1)
    rotate(0)
"
id="256aae51-ecaf-4c03-b1db-3354697df3bd_227"
clipPathUnits="userSpaceOnUse"
shape-rendering="geometricPrecision"    
    width="80" 
    height="26" 
    rx="3" 
    ry="3" 
/><text

        class="pinlabel__text"
transform="
    translate(106.0 0) 
    scale(1 1)
    rotate(0)
"
id="256aae51-ecaf-4c03-b1db-3354697df3bd_225"
clipPathUnits="userSpaceOnUse"
shape-rendering="geometricPrecision">
    9
</text><path 

        class="pinlabel__leader"
transform="
    translate(0 0) 
    scale(1 1)
    rotate(0)
"
id="256aae51-ecaf-4c03-b1db-3354697df3bd_91"
clipPathUnits="userSpaceOnUse"
shape-rendering="geometricPrecision"    
    d="M 0.0 0.0 L 8.25 0.0 C 33.0 0.0 33.0 0.0 57.75 0.0 L 66 0.0" 
/>
</g><g 
        class=" pinlabel gnd"
transform="
    translate(146.0 0) 
    scale(1 1)
    rotate(0)
"
id="256aae51-ecaf-4c03-b1db-3354697df3bd_93"
clipPathUnits="userSpaceOnUse"
shape-rendering="geometricPrecision">
        <rect

        class=" pinlabel__body"
transform="
    translate(6 -13.0) 
    scale(1 1)
    rotate(0)
"
id="256aae51-ecaf-4c03-b1db-3354697df3bd_230"
clipPathUnits="userSpaceOnUse"
shape-rendering="geometricPrecision"    
    width="80" 
    height="26" 
    rx="3" 
    ry="3" 
/><text

        class="pinlabel__text"
transform="
    translate(46.0 0) 
    scale(1 1)
    rotate(0)
"
id="256aae51-ecaf-4c03-b1db-3354697df3bd_228"
clipPathUnits="userSpaceOnUse"
shape-rendering="geometricPrecision">
    GND
</text><path 

        class=" pinlabel__leader"
transform="
    translate(0 0) 
    scale(1 1)
    rotate(0)
"
id="256aae51-ecaf-4c03-b1db-3354697df3bd_97"
clipPathUnits="userSpaceOnUse"
shape-rendering="geometricPrecision"    
    d="M 0.0 0.0 L 6 0.0" 
/>
</g>
</g><g 
transform="
    translate(0 0) 
    scale(1 1)
    rotate(0)
"
id="256aae51-ecaf-4c03-b1db-3354697df3bd_98"
clipPathUnits="userSpaceOnUse"
shape-rendering="geometricPrecision">
        <g 
        class=" pinlabel pin"
transform="
    translate(0.0 30.0) 
    scale(1 1)
    rotate(0)
"
id="256aae51-ecaf-4c03-b1db-3354697df3bd_99"
clipPathUnits="userSpaceOnUse"
shape-rendering="geometricPrecision">
        <rect

        class=" pinlabel__body"
transform="
    translate(66.0 -13.0) 
    scale(1 1)
    rotate(0)
"
id="256aae51-ecaf-4c03-b1db-3354697df3bd_233"
clipPathUnits="userSpaceOnUse"
shape-rendering="geometricPrecision"    
    width="80" 
    height="26" 
    rx="3" 
    ry="3" 
/><text

        class="pinlabel__text"
transform="
    translate(106.0 0.0) 
    scale(1 1)
    rotate(0)
"
id="256aae51-ecaf-4c03-b1db-3354697df3bd_231"
clipPathUnits="userSpaceOnUse"
shape-rendering="geometricPrecision">
    7
</text><path 

        class="pinlabel__leader"
transform="
    translate(0 0) 
    scale(1 1)
    rotate(0)
"
id="256aae51-ecaf-4c03-b1db-3354697df3bd_101"
clipPathUnits="userSpaceOnUse"
shape-rendering="geometricPrecision"    
    d="M 0.0 0.0 L 8.25 0.0 C 33.0 0.0 33.0 0.0 57.75 0.0 L 66.0 0.0" 
/>
</g><g 
        class=" pinlabel nc"
transform="
    translate(146.0 30.0) 
    scale(1 1)
    rotate(0)
"
id="256aae51-ecaf-4c03-b1db-3354697df3bd_103"
clipPathUnits="userSpaceOnUse"
shape-rendering="geometricPrecision">
        <rect

        class=" pinlabel__body"
transform="
    translate(6 -13.0) 
    scale(1 1)
    rotate(0)
"
id="256aae51-ecaf-4c03-b1db-3354697df3bd_236"
clipPathUnits="userSpaceOnUse"
shape-rendering="geometricPrecision"    
    width="80" 
    height="26" 
    rx="3" 
    ry="3" 
/><text

        class="pinlabel__text"
transform="
    translate(46.0 0) 
    scale(1 1)
    rotate(0)
"
id="256aae51-ecaf-4c03-b1db-3354697df3bd_234"
clipPathUnits="userSpaceOnUse"
shape-rendering="geometricPrecision">
    Key
</text><path 

        class=" pinlabel__leader"
transform="
    translate(0 0) 
    scale(1 1)
    rotate(0)
"
id="256aae51-ecaf-4c03-b1db-3354697df3bd_107"
clipPathUnits="userSpaceOnUse"
shape-rendering="geometricPrecision"    
    d="M 0.0 0.0 L 6 0.0" 
/>
</g>
</g><g 
transform="
    translate(0 0) 
    scale(1 1)
    rotate(0)
"
id="256aae51-ecaf-4c03-b1db-3354697df3bd_108"
clipPathUnits="userSpaceOnUse"
shape-rendering="geometricPrecision">
        <g 
        class=" pinlabel pin"
transform="
    translate(0.0 60.0) 
    scale(1 1)
    rotate(0)
"
id="256aae51-ecaf-4c03-b1db-3354697df3bd_109"
clipPathUnits="userSpaceOnUse"
shape-rendering="geometricPrecision">
        <rect

        class=" pinlabel__body"
transform="
    translate(66.0 -13.0) 
    scale(1 1)
    rotate(0)
"
id="256aae51-ecaf-4c03-b1db-3354697df3bd_239"
clipPathUnits="userSpaceOnUse"
shape-rendering="geometricPrecision"    
    width="80" 
    height="26" 
    rx="3" 
    ry="3" 
/><text

        class="pinlabel__text"
transform="
    translate(106.0 0.0) 
    scale(1 1)
    rotate(0)
"
id="256aae51-ecaf-4c03-b1db-3354697df3bd_237"
clipPathUnits="userSpaceOnUse"
shape-rendering="geometricPrecision">
    5
</text><path 

        class="pinlabel__leader"
transform="
    translate(0 0) 
    scale(1 1)
    rotate(0)
"
id="256aae51-ecaf-4c03-b1db-3354697df3bd_111"
clipPathUnits="userSpaceOnUse"
shape-rendering="geometricPrecision"    
    d="M 0.0 0.0 L 8.25 0.0 C 33.0 0.0 33.0 0.0 57.75 0.0 L 66.0 0.0" 
/>
</g><g 
        class=" pinlabel gnd"
transform="
    translate(146.0 60.0) 
    scale(1 1)
    rotate(0)
"
id="256aae51-ecaf-4c03-b1db-3354697df3bd_113"
clipPathUnits="userSpaceOnUse"
shape-rendering="geometricPrecision">
        <rect

        class=" pinlabel__body"
transform="
    translate(6 -13.0) 
    scale(1 1)
    rotate(0)
"
id="256aae51-ecaf-4c03-b1db-3354697df3bd_242"
clipPathUnits="userSpaceOnUse"
shape-rendering="geometricPrecision"    
    width="80" 
    height="26" 
    rx="3" 
    ry="3" 
/><text

        class="pinlabel__text"
transform="
    translate(46.0 0) 
    scale(1 1)
    rotate(0)
"
id="256aae51-ecaf-4c03-b1db-3354697df3bd_240"
clipPathUnits="userSpaceOnUse"
shape-rendering="geometricPrecision">
    GND
</text><path 

        class=" pinlabel__leader"
transform="
    translate(0 0) 
    scale(1 1)
    rotate(0)
"
id="256aae51-ecaf-4c03-b1db-3354697df3bd_117"
clipPathUnits="userSpaceOnUse"
shape-rendering="geometricPrecision"    
    d="M 0.0 0.0 L 6 0.0" 
/>
</g>
</g><g 
transform="
    translate(0 0) 
    scale(1 1)
    rotate(0)
"
id="256aae51-ecaf-4c03-b1db-3354697df3bd_118"
clipPathUnits="userSpaceOnUse"
shape-rendering="geometricPrecision">
        <g 
        class=" pinlabel pin"
transform="
    translate(0.0 90.0) 
    scale(1 1)
    rotate(0)
"
id="256aae51-ecaf-4c03-b1db-3354697df3bd_119"
clipPathUnits="userSpaceOnUse"
shape-rendering="geometricPrecision">
        <rect

        class=" pinlabel__body"
transform="
    translate(66.0 -13.0) 
    scale(1 1)
    rotate(0)
"
id="256aae51-ecaf-4c03-b1db-3354697df3bd_245"
clipPathUnits="userSpaceOnUse"
shape-rendering="geometricPrecision"    
    width="80" 
    height="26" 
    rx="3" 
    ry="3" 
/><text

        class="pinlabel__text"
transform="
    translate(106.0 0.0) 
    scale(1 1)
    rotate(0)
"
id="256aae51-ecaf-4c03-b1db-3354697df3bd_243"
clipPathUnits="userSpaceOnUse"
shape-rendering="geometricPrecision">
    3
</text><path 

        class="pinlabel__leader"
transform="
    translate(0 0) 
    scale(1 1)
    rotate(0)
"
id="256aae51-ecaf-4c03-b1db-3354697df3bd_121"
clipPathUnits="userSpaceOnUse"
shape-rendering="geometricPrecision"    
    d="M 0.0 0.0 L 8.25 0.0 C 33.0 0.0 33.0 0.0 57.75 0.0 L 66.0 0.0" 
/>
</g><g 
        class=" pinlabel gnd"
transform="
    translate(146.0 90.0) 
    scale(1 1)
    rotate(0)
"
id="256aae51-ecaf-4c03-b1db-3354697df3bd_123"
clipPathUnits="userSpaceOnUse"
shape-rendering="geometricPrecision">
        <rect

        class=" pinlabel__body"
transform="
    translate(6 -13.0) 
    scale(1 1)
    rotate(0)
"
id="256aae51-ecaf-4c03-b1db-3354697df3bd_248"
clipPathUnits="userSpaceOnUse"
shape-rendering="geometricPrecision"    
    width="80" 
    height="26" 
    rx="3" 
    ry="3" 
/><text

        class="pinlabel__text"
transform="
    translate(46.0 0) 
    scale(1 1)
    rotate(0)
"
id="256aae51-ecaf-4c03-b1db-3354697df3bd_246"
clipPathUnits="userSpaceOnUse"
shape-rendering="geometricPrecision">
    GND
</text><path 

        class=" pinlabel__leader"
transform="
    translate(0 0) 
    scale(1 1)
    rotate(0)
"
id="256aae51-ecaf-4c03-b1db-3354697df3bd_127"
clipPathUnits="userSpaceOnUse"
shape-rendering="geometricPrecision"    
    d="M 0.0 0.0 L 6 0.0" 
/>
</g>
</g><g 
transform="
    translate(0 0) 
    scale(1 1)
    rotate(0)
"
id="256aae51-ecaf-4c03-b1db-3354697df3bd_128"
clipPathUnits="userSpaceOnUse"
shape-rendering="geometricPrecision">
        <g 
        class=" pinlabel pin"
transform="
    translate(0.0 120.0) 
    scale(1 1)
    rotate(0)
"
id="256aae51-ecaf-4c03-b1db-3354697df3bd_129"
clipPathUnits="userSpaceOnUse"
shape-rendering="geometricPrecision">
        <rect

        class=" pinlabel__body"
transform="
    translate(66.0 -13.0) 
    scale(1 1)
    rotate(0)
"
id="256aae51-ecaf-4c03-b1db-3354697df3bd_251"
clipPathUnits="userSpaceOnUse"
shape-rendering="geometricPrecision"    
    width="80" 
    height="26" 
    rx="3" 
    ry="3" 
/><text

        class="pinlabel__text"
transform="
    translate(106.0 0.0) 
    scale(1 1)
    rotate(0)
"
id="256aae51-ecaf-4c03-b1db-3354697df3bd_249"
clipPathUnits="userSpaceOnUse"
shape-rendering="geometricPrecision">
    1
</text><path 

        class="pinlabel__leader"
transform="
    translate(0 0) 
    scale(1 1)
    rotate(0)
"
id="256aae51-ecaf-4c03-b1db-3354697df3bd_131"
clipPathUnits="userSpaceOnUse"
shape-rendering="geometricPrecision"    
    d="M 0.0 0.0 L 8.25 0.0 C 33.0 0.0 33.0 0.0 57.75 0.0 L 66.0 0.0" 
/>
</g><g 
        class=" pinlabel pwr"
transform="
    translate(146.0 120.0) 
    scale(1 1)
    rotate(0)
"
id="256aae51-ecaf-4c03-b1db-3354697df3bd_133"
clipPathUnits="userSpaceOnUse"
shape-rendering="geometricPrecision">
        <rect

        class=" pinlabel__body"
transform="
    translate(6 -13.0) 
    scale(1 1)
    rotate(0)
"
id="256aae51-ecaf-4c03-b1db-3354697df3bd_254"
clipPathUnits="userSpaceOnUse"
shape-rendering="geometricPrecision"    
    width="80" 
    height="26" 
    rx="3" 
    ry="3" 
/><text

        class="pinlabel__text"
transform="
    translate(46.0 0) 
    scale(1 1)
    rotate(0)
"
id="256aae51-ecaf-4c03-b1db-3354697df3bd_252"
clipPathUnits="userSpaceOnUse"
shape-rendering="geometricPrecision">
    vRef
</text><path 

        class=" pinlabel__leader"
transform="
    translate(0 0) 
    scale(1 1)
    rotate(0)
"
id="256aae51-ecaf-4c03-b1db-3354697df3bd_137"
clipPathUnits="userSpaceOnUse"
shape-rendering="geometricPrecision"    
    d="M 0.0 0.0 L 6 0.0" 
/>
</g>
</g>
</g>
</g>
</g><g 
        class="panel--info panel"
transform="
    translate(0.5 300.5) 
    scale(1 1)
    rotate(0)
"
id="256aae51-ecaf-4c03-b1db-3354697df3bd_7"
clipPathUnits="userSpaceOnUse"
shape-rendering="geometricPrecision">
        <rect

        class="panel__outer"
transform="
    translate(-0.5 -0.5) 
    scale(1 1)
    rotate(0)
"
id="256aae51-ecaf-4c03-b1db-3354697df3bd_256"
clipPathUnits="userSpaceOnUse"
shape-rendering="geometricPrecision"    
    width="796" 
    height="246" 
/><rect

        class="panel__inner"
transform="
    translate(0 0) 
    scale(1 1)
    rotate(0)
"
id="256aae51-ecaf-4c03-b1db-3354697df3bd_255"
clipPathUnits="userSpaceOnUse"
shape-rendering="geometricPrecision"    
    width="795.0" 
    height="245.0" 
/><g 
        class="panel title_block textblock"
transform="
    translate(20 30) 
    scale(1 1)
    rotate(0)
"
id="256aae51-ecaf-4c03-b1db-3354697df3bd_138"
clipPathUnits="userSpaceOnUse"
shape-rendering="geometricPrecision">
        <text

        class="textblock"
transform="
    translate(0 0) 
    scale(1 1)
    rotate(0)
"
id="256aae51-ecaf-4c03-b1db-3354697df3bd_257"
clipPathUnits="userSpaceOnUse"
shape-rendering="geometricPrecision">
    <tspan class='h1'>ARM Cortex JTAG/SWD Debug Connector Pinout</tspan>
</text>
</g><g 
        class="panel text_block textblock"
transform="
    translate(20 60) 
    scale(1 1)
    rotate(0)
"
id="256aae51-ecaf-4c03-b1db-3354697df3bd_139"
clipPathUnits="userSpaceOnUse"
shape-rendering="geometricPrecision">
        <text

        class="textblock"
transform="
    translate(0 0) 
    scale(1 1)
    rotate(0)
"
id="256aae51-ecaf-4c03-b1db-3354697df3bd_258"
clipPathUnits="userSpaceOnUse"
shape-rendering="geometricPrecision">
    This is the standard ARM Cortex JTAG/SWD Debug connector
</text><text

        class="textblock"
transform="
    translate(0 18) 
    scale(1 1)
    rotate(0)
"
id="256aae51-ecaf-4c03-b1db-3354697df3bd_259"
clipPathUnits="userSpaceOnUse"
shape-rendering="geometricPrecision">
    used on Black Magic Probe as well as many targets.
</text><text

        class="textblock"
transform="
    translate(0 36) 
    scale(1 1)
    rotate(0)
"
id="256aae51-ecaf-4c03-b1db-3354697df3bd_260"
clipPathUnits="userSpaceOnUse"
shape-rendering="geometricPrecision">
    
</text><text

        class="textblock"
transform="
    translate(0 54) 
    scale(1 1)
    rotate(0)
"
id="256aae51-ecaf-4c03-b1db-3354697df3bd_261"
clipPathUnits="userSpaceOnUse"
shape-rendering="geometricPrecision">
    NOTE: The header is HALF PITCH! This means it is 0.05 inch (1.27 mm) pitch pin header.
</text><text

        class="textblock"
transform="
    translate(0 72) 
    scale(1 1)
    rotate(0)
"
id="256aae51-ecaf-4c03-b1db-3354697df3bd_262"
clipPathUnits="userSpaceOnUse"
shape-rendering="geometricPrecision">
    
</text>
</g><g 
        class=" legend"
transform="
    translate(630 8) 
    scale(1 1)
    rotate(0)
"
id="256aae51-ecaf-4c03-b1db-3354697df3bd_140"
clipPathUnits="userSpaceOnUse"
shape-rendering="geometricPrecision">
        <g 
        class="swd legendentry"
transform="
    translate(0 0) 
    scale(1 1)
    rotate(0)
"
id="256aae51-ecaf-4c03-b1db-3354697df3bd_141"
clipPathUnits="userSpaceOnUse"
shape-rendering="geometricPrecision">
        <g 
        class=" swatch"
transform="
    translate(4.0 14.0) 
    scale(1 1)
    rotate(0)
"
id="256aae51-ecaf-4c03-b1db-3354697df3bd_142"
clipPathUnits="userSpaceOnUse"
shape-rendering="geometricPrecision">
        <rect

        class=" swatch__body"
transform="
    translate(0 -10.0) 
    scale(1 1)
    rotate(0)
"
id="256aae51-ecaf-4c03-b1db-3354697df3bd_143"
clipPathUnits="userSpaceOnUse"
shape-rendering="geometricPrecision"    
    width="20" 
    height="20" 
/>
</g><text

transform="
    translate(28.0 14.0) 
    scale(1 1)
    rotate(0)
"
id="256aae51-ecaf-4c03-b1db-3354697df3bd_145"
clipPathUnits="userSpaceOnUse"
shape-rendering="geometricPrecision">
    SWD
</text>
</g><g 
        class="jtag legendentry"
transform="
    translate(0 28.0) 
    scale(1 1)
    rotate(0)
"
id="256aae51-ecaf-4c03-b1db-3354697df3bd_146"
clipPathUnits="userSpaceOnUse"
shape-rendering="geometricPrecision">
        <g 
        class=" swatch"
transform="
    translate(4.0 14.0) 
    scale(1 1)
    rotate(0)
"
id="256aae51-ecaf-4c03-b1db-3354697df3bd_147"
clipPathUnits="userSpaceOnUse"
shape-rendering="geometricPrecision">
        <rect

        class=" swatch__body"
transform="
    translate(0 -10.0) 
    scale(1 1)
    rotate(0)
"
id="256aae51-ecaf-4c03-b1db-3354697df3bd_148"
clipPathUnits="userSpaceOnUse"
shape-rendering="geometricPrecision"    
    width="20" 
    height="20" 
/>
</g><text

transform="
    translate(28.0 14.0) 
    scale(1 1)
    rotate(0)
"
id="256aae51-ecaf-4c03-b1db-3354697df3bd_150"
clipPathUnits="userSpaceOnUse"
shape-rendering="geometricPrecision">
    JTAG
</text>
</g><g 
        class="gnd legendentry"
transform="
    translate(0 56.0) 
    scale(1 1)
    rotate(0)
"
id="256aae51-ecaf-4c03-b1db-3354697df3bd_151"
clipPathUnits="userSpaceOnUse"
shape-rendering="geometricPrecision">
        <g 
        class=" swatch"
transform="
    translate(4.0 14.0) 
    scale(1 1)
    rotate(0)
"
id="256aae51-ecaf-4c03-b1db-3354697df3bd_152"
clipPathUnits="userSpaceOnUse"
shape-rendering="geometricPrecision">
        <rect

        class=" swatch__body"
transform="
    translate(0 -10.0) 
    scale(1 1)
    rotate(0)
"
id="256aae51-ecaf-4c03-b1db-3354697df3bd_153"
clipPathUnits="userSpaceOnUse"
shape-rendering="geometricPrecision"    
    width="20" 
    height="20" 
/>
</g><text

transform="
    translate(28.0 14.0) 
    scale(1 1)
    rotate(0)
"
id="256aae51-ecaf-4c03-b1db-3354697df3bd_155"
clipPathUnits="userSpaceOnUse"
shape-rendering="geometricPrecision">
    Ground
</text>
</g><g 
        class="pin legendentry"
transform="
    translate(0 84.0) 
    scale(1 1)
    rotate(0)
"
id="256aae51-ecaf-4c03-b1db-3354697df3bd_156"
clipPathUnits="userSpaceOnUse"
shape-rendering="geometricPrecision">
        <g 
        class=" swatch"
transform="
    translate(4.0 14.0) 
    scale(1 1)
    rotate(0)
"
id="256aae51-ecaf-4c03-b1db-3354697df3bd_157"
clipPathUnits="userSpaceOnUse"
shape-rendering="geometricPrecision">
        <rect

        class=" swatch__body"
transform="
    translate(0 -10.0) 
    scale(1 1)
    rotate(0)
"
id="256aae51-ecaf-4c03-b1db-3354697df3bd_158"
clipPathUnits="userSpaceOnUse"
shape-rendering="geometricPrecision"    
    width="20" 
    height="20" 
/>
</g><text

transform="
    translate(28.0 14.0) 
    scale(1 1)
    rotate(0)
"
id="256aae51-ecaf-4c03-b1db-3354697df3bd_160"
clipPathUnits="userSpaceOnUse"
shape-rendering="geometricPrecision">
    Pin
</text>
</g><g 
        class="pwr legendentry"
transform="
    translate(0 112.0) 
    scale(1 1)
    rotate(0)
"
id="256aae51-ecaf-4c03-b1db-3354697df3bd_161"
clipPathUnits="userSpaceOnUse"
shape-rendering="geometricPrecision">
        <g 
        class=" swatch"
transform="
    translate(4.0 14.0) 
    scale(1 1)
    rotate(0)
"
id="256aae51-ecaf-4c03-b1db-3354697df3bd_162"
clipPathUnits="userSpaceOnUse"
shape-rendering="geometricPrecision">
        <rect

        class=" swatch__body"
transform="
    translate(0 -10.0) 
    scale(1 1)
    rotate(0)
"
id="256aae51-ecaf-4c03-b1db-3354697df3bd_163"
clipPathUnits="userSpaceOnUse"
shape-rendering="geometricPrecision"    
    width="20" 
    height="20" 
/>
</g><text

transform="
    translate(28.0 14.0) 
    scale(1 1)
    rotate(0)
"
id="256aae51-ecaf-4c03-b1db-3354697df3bd_165"
clipPathUnits="userSpaceOnUse"
shape-rendering="geometricPrecision">
    Power
</text>
</g><g 
        class="nc legendentry"
transform="
    translate(0 140.0) 
    scale(1 1)
    rotate(0)
"
id="256aae51-ecaf-4c03-b1db-3354697df3bd_166"
clipPathUnits="userSpaceOnUse"
shape-rendering="geometricPrecision">
        <g 
        class=" swatch"
transform="
    translate(4.0 14.0) 
    scale(1 1)
    rotate(0)
"
id="256aae51-ecaf-4c03-b1db-3354697df3bd_167"
clipPathUnits="userSpaceOnUse"
shape-rendering="geometricPrecision">
        <rect

        class=" swatch__body"
transform="
    translate(0 -10.0) 
    scale(1 1)
    rotate(0)
"
id="256aae51-ecaf-4c03-b1db-3354697df3bd_168"
clipPathUnits="userSpaceOnUse"
shape-rendering="geometricPrecision"    
    width="20" 
    height="20" 
/>
</g><text

transform="
    translate(28.0 14.0) 
    scale(1 1)
    rotate(0)
"
id="256aae51-ecaf-4c03-b1db-3354697df3bd_170"
clipPathUnits="userSpaceOnUse"
shape-rendering="geometricPrecision">
    Not Connected
</text>
</g><g 
        class="rst legendentry"
transform="
    translate(0 168.0) 
    scale(1 1)
    rotate(0)
"
id="256aae51-ecaf-4c03-b1db-3354697df3bd_171"
clipPathUnits="userSpaceOnUse"
shape-rendering="geometricPrecision">
        <g 
        class=" swatch"
transform="
    translate(4.0 14.0) 
    scale(1 1)
    rotate(0)
"
id="256aae51-ecaf-4c03-b1db-3354697df3bd_172"
clipPathUnits="userSpaceOnUse"
shape-rendering="geometricPrecision">
        <rect

        class=" swatch__body"
transform="
    translate(0 -10.0) 
    scale(1 1)
    rotate(0)
"
id="256aae51-ecaf-4c03-b1db-3354697df3bd_173"
clipPathUnits="userSpaceOnUse"
shape-rendering="geometricPrecision"    
    width="20" 
    height="20" 
/>
</g><text

transform="
    translate(28.0 14.0) 
    scale(1 1)
    rotate(0)
"
id="256aae51-ecaf-4c03-b1db-3354697df3bd_175"
clipPathUnits="userSpaceOnUse"
shape-rendering="geometricPrecision">
    Reset
</text>
</g>
</g>
</g>
</g>
    
</svg>